<mxfile host="Electron" modified="2024-01-17T19:27:52.303Z" agent="Mozilla/5.0 (Macintosh; Intel Mac OS X 10_15_7) AppleWebKit/537.36 (KHTML, like Gecko) draw.io/22.1.18 Chrome/120.0.6099.199 Electron/28.1.2 Safari/537.36" etag="NBX3dz_eo5r34WfKZGnd" version="22.1.18" type="device" pages="5">
  <diagram id="u-Bgehv5GdRI6xBluCmY" name="Edge template">
    <mxGraphModel dx="1109" dy="817" grid="1" gridSize="10" guides="1" tooltips="1" connect="1" arrows="1" fold="1" page="1" pageScale="1" pageWidth="1600" pageHeight="900" math="0" shadow="0">
      <root>
        <mxCell id="0" />
        <mxCell id="1" parent="0" />
        <mxCell id="NKZoFBCDpuy2na6IxqbC-1" value="" style="rounded=0;whiteSpace=wrap;html=1;" parent="1" vertex="1">
          <mxGeometry x="40" y="40" width="520" height="800" as="geometry" />
        </mxCell>
        <mxCell id="NKZoFBCDpuy2na6IxqbC-2" value="" style="rounded=0;whiteSpace=wrap;html=1;flipV=1;" parent="1" vertex="1">
          <mxGeometry x="590" y="40" width="540" height="800" as="geometry" />
        </mxCell>
        <mxCell id="NKZoFBCDpuy2na6IxqbC-3" value="" style="rounded=0;whiteSpace=wrap;html=1;" parent="1" vertex="1">
          <mxGeometry x="1160" y="40" width="400" height="800" as="geometry" />
        </mxCell>
        <mxCell id="NKZoFBCDpuy2na6IxqbC-17" value="" style="group" parent="1" vertex="1" connectable="0">
          <mxGeometry x="40" y="40" width="520" height="50" as="geometry" />
        </mxCell>
        <mxCell id="NKZoFBCDpuy2na6IxqbC-15" value="" style="rounded=0;whiteSpace=wrap;html=1;fillColor=#5762b3;" parent="NKZoFBCDpuy2na6IxqbC-17" vertex="1">
          <mxGeometry width="520" height="50" as="geometry" />
        </mxCell>
        <mxCell id="NKZoFBCDpuy2na6IxqbC-16" value="&lt;font color=&quot;#ffffff&quot; style=&quot;font-size: 24px;&quot;&gt;User Edge, Field Deployed Compute&lt;/font&gt;" style="text;strokeColor=none;align=center;fillColor=none;html=1;verticalAlign=middle;whiteSpace=wrap;rounded=0;" parent="NKZoFBCDpuy2na6IxqbC-17" vertex="1">
          <mxGeometry x="20" y="10" width="490" height="30" as="geometry" />
        </mxCell>
        <mxCell id="NKZoFBCDpuy2na6IxqbC-20" value="" style="group;fillColor=none;" parent="1" vertex="1" connectable="0">
          <mxGeometry x="595" y="40" width="535" height="50" as="geometry" />
        </mxCell>
        <mxCell id="NKZoFBCDpuy2na6IxqbC-18" value="" style="rounded=0;whiteSpace=wrap;html=1;fillColor=#d5e8d4;strokeColor=#82b366;" parent="NKZoFBCDpuy2na6IxqbC-20" vertex="1">
          <mxGeometry width="535" height="50" as="geometry" />
        </mxCell>
        <mxCell id="NKZoFBCDpuy2na6IxqbC-19" value="&lt;font style=&quot;font-size: 24px;&quot;&gt;Service Provider Edge, Regional Compute&lt;/font&gt;" style="text;strokeColor=none;align=center;fillColor=#d5e8d4;html=1;verticalAlign=middle;whiteSpace=wrap;rounded=0;" parent="NKZoFBCDpuy2na6IxqbC-20" vertex="1">
          <mxGeometry x="20.576923076923073" y="10" width="504.13461538461536" height="30" as="geometry" />
        </mxCell>
        <mxCell id="NKZoFBCDpuy2na6IxqbC-23" value="" style="group" parent="1" vertex="1" connectable="0">
          <mxGeometry x="1160" y="40" width="400" height="50" as="geometry" />
        </mxCell>
        <mxCell id="NKZoFBCDpuy2na6IxqbC-21" value="" style="rounded=0;whiteSpace=wrap;html=1;fillColor=#E7DBF0;" parent="NKZoFBCDpuy2na6IxqbC-23" vertex="1">
          <mxGeometry width="400" height="50" as="geometry" />
        </mxCell>
        <mxCell id="NKZoFBCDpuy2na6IxqbC-22" value="&lt;font style=&quot;font-size: 24px;&quot;&gt;Global and Cloud Compute&lt;/font&gt;" style="text;strokeColor=none;align=center;fillColor=none;html=1;verticalAlign=middle;whiteSpace=wrap;rounded=0;" parent="NKZoFBCDpuy2na6IxqbC-23" vertex="1">
          <mxGeometry x="50" y="10" width="300" height="30" as="geometry" />
        </mxCell>
        <mxCell id="rkRexL7u3ubiK1zSjF01-2" value="" style="endArrow=none;html=1;rounded=0;exitX=0.001;exitY=0.697;exitDx=0;exitDy=0;exitPerimeter=0;entryX=1.002;entryY=0.702;entryDx=0;entryDy=0;entryPerimeter=0;" parent="1" edge="1">
          <mxGeometry width="50" height="50" relative="1" as="geometry">
            <mxPoint x="40.51999999999998" y="560.5999999999999" as="sourcePoint" />
            <mxPoint x="1560.8000000000002" y="564.5999999999999" as="targetPoint" />
          </mxGeometry>
        </mxCell>
        <mxCell id="rkRexL7u3ubiK1zSjF01-3" value="" style="endArrow=none;html=1;rounded=0;exitX=0.004;exitY=0.352;exitDx=0;exitDy=0;exitPerimeter=0;entryX=1.005;entryY=0.347;entryDx=0;entryDy=0;entryPerimeter=0;" parent="1" edge="1">
          <mxGeometry width="50" height="50" relative="1" as="geometry">
            <mxPoint x="42.07999999999993" y="281.5999999999999" as="sourcePoint" />
            <mxPoint x="1562" y="277.5999999999999" as="targetPoint" />
          </mxGeometry>
        </mxCell>
        <mxCell id="NKZoFBCDpuy2na6IxqbC-14" value="" style="group" parent="1" vertex="1" connectable="0">
          <mxGeometry x="560" y="40" width="129.07" height="800" as="geometry" />
        </mxCell>
        <mxCell id="NKZoFBCDpuy2na6IxqbC-4" value="&lt;div style=&quot;text-align: justify;&quot;&gt;&lt;br&gt;&lt;/div&gt;" style="rounded=0;whiteSpace=wrap;html=1;fillColor=#000000;fontFamily=Helvetica;fontColor=#FFFFFF;rotation=0;container=1;" parent="NKZoFBCDpuy2na6IxqbC-14" vertex="1">
          <mxGeometry width="35" height="800" as="geometry">
            <mxRectangle x="560" y="40" width="40" height="30" as="alternateBounds" />
          </mxGeometry>
        </mxCell>
        <mxCell id="NKZoFBCDpuy2na6IxqbC-5" value="&lt;font style=&quot;font-size: 24px;&quot; color=&quot;#ffffff&quot;&gt;Last Mile Networks&lt;/font&gt;" style="text;strokeColor=none;align=center;fillColor=none;html=1;verticalAlign=middle;whiteSpace=wrap;rounded=0;rotation=90;" parent="NKZoFBCDpuy2na6IxqbC-14" vertex="1">
          <mxGeometry x="-94.06" y="360.94" width="223.13" height="30" as="geometry" />
        </mxCell>
        <mxCell id="NKZoFBCDpuy2na6IxqbC-13" value="" style="group" parent="1" vertex="1" connectable="0">
          <mxGeometry x="1120" y="40" width="40" height="800" as="geometry" />
        </mxCell>
        <mxCell id="NKZoFBCDpuy2na6IxqbC-11" value="&lt;div style=&quot;text-align: justify;&quot;&gt;&lt;br&gt;&lt;/div&gt;" style="rounded=0;whiteSpace=wrap;html=1;fillColor=#000000;fontFamily=Helvetica;fontColor=#FFFFFF;rotation=0;container=1;" parent="NKZoFBCDpuy2na6IxqbC-13" vertex="1">
          <mxGeometry x="5" width="35" height="800" as="geometry">
            <mxRectangle width="40" height="30" as="alternateBounds" />
          </mxGeometry>
        </mxCell>
        <mxCell id="NKZoFBCDpuy2na6IxqbC-12" value="&lt;font color=&quot;#ffffff&quot; style=&quot;font-size: 24px;&quot;&gt;Internet Edge&lt;/font&gt;" style="text;strokeColor=none;align=center;fillColor=none;html=1;verticalAlign=middle;whiteSpace=wrap;rounded=0;rotation=90;" parent="NKZoFBCDpuy2na6IxqbC-13" vertex="1">
          <mxGeometry x="-60.625" y="350" width="166.25" height="30" as="geometry" />
        </mxCell>
        <mxCell id="rkRexL7u3ubiK1zSjF01-4" value="&lt;font style=&quot;font-size: 24px;&quot;&gt;Infrastructure&lt;/font&gt;" style="text;strokeColor=none;align=center;fillColor=none;html=1;verticalAlign=middle;whiteSpace=wrap;rounded=0;rotation=-90;" parent="1" vertex="1">
          <mxGeometry x="-60" y="680" width="160" height="30" as="geometry" />
        </mxCell>
        <mxCell id="rkRexL7u3ubiK1zSjF01-5" value="&lt;font style=&quot;font-size: 24px;&quot;&gt;Platform&lt;/font&gt;" style="text;strokeColor=none;align=center;fillColor=none;html=1;verticalAlign=middle;whiteSpace=wrap;rounded=0;rotation=-90;" parent="1" vertex="1">
          <mxGeometry x="-45" y="403" width="130" height="30" as="geometry" />
        </mxCell>
        <mxCell id="rkRexL7u3ubiK1zSjF01-6" value="&lt;font style=&quot;font-size: 24px;&quot;&gt;Application&lt;/font&gt;" style="text;strokeColor=none;align=center;fillColor=none;html=1;verticalAlign=middle;whiteSpace=wrap;rounded=0;rotation=-90;flipV=0;flipH=0;direction=west;" parent="1" vertex="1">
          <mxGeometry x="-60" y="173" width="160" height="30" as="geometry" />
        </mxCell>
        <mxCell id="ciEPmOCgVu5wvoN1vWtT-1" value="" style="image;aspect=fixed;perimeter=ellipsePerimeter;html=1;align=center;shadow=0;dashed=0;fontColor=#4277BB;labelBackgroundColor=default;fontSize=12;spacingTop=3;image=img/lib/ibm/vpc/Router.svg;" parent="1" vertex="1">
          <mxGeometry x="620" y="653" width="50" height="50" as="geometry" />
        </mxCell>
      </root>
    </mxGraphModel>
  </diagram>
  <diagram id="rwcJ8YqwBkLQc-IUXoJW" name="Chp4-Fig3">
    <mxGraphModel dx="1109" dy="817" grid="1" gridSize="10" guides="1" tooltips="1" connect="1" arrows="1" fold="1" page="1" pageScale="1" pageWidth="850" pageHeight="1100" math="0" shadow="0">
      <root>
        <mxCell id="0" />
        <mxCell id="1" parent="0" />
        <mxCell id="HTjEitjg_voOFouNTG_g-2" value="" style="shape=parallelogram;perimeter=parallelogramPerimeter;whiteSpace=wrap;html=1;fixedSize=1;size=90;rotation=5;fillColor=#cce5ff;strokeColor=#36393d;" parent="1" vertex="1">
          <mxGeometry x="150" y="209.9" width="490" height="140" as="geometry" />
        </mxCell>
        <mxCell id="HTjEitjg_voOFouNTG_g-6" value="" style="shape=parallelogram;perimeter=parallelogramPerimeter;whiteSpace=wrap;html=1;fixedSize=1;size=90;rotation=5;fillColor=#eeeeee;strokeColor=#36393d;" parent="1" vertex="1">
          <mxGeometry x="140" y="360" width="490" height="140" as="geometry" />
        </mxCell>
        <mxCell id="HTjEitjg_voOFouNTG_g-9" style="rounded=0;orthogonalLoop=1;jettySize=auto;html=1;entryX=0;entryY=0.5;entryDx=0;entryDy=0;endArrow=none;endFill=0;strokeWidth=2;" parent="1" target="HTjEitjg_voOFouNTG_g-4" edge="1">
          <mxGeometry relative="1" as="geometry">
            <mxPoint x="230" y="430" as="sourcePoint" />
          </mxGeometry>
        </mxCell>
        <mxCell id="HTjEitjg_voOFouNTG_g-3" value="" style="image;html=1;image=img/lib/clip_art/networking/Switch_128x128.png" parent="1" vertex="1">
          <mxGeometry x="200" y="410" width="50" height="60" as="geometry" />
        </mxCell>
        <mxCell id="HTjEitjg_voOFouNTG_g-10" style="rounded=0;orthogonalLoop=1;jettySize=auto;html=1;endArrow=none;endFill=0;strokeWidth=2;" parent="1" source="HTjEitjg_voOFouNTG_g-4" target="HTjEitjg_voOFouNTG_g-7" edge="1">
          <mxGeometry relative="1" as="geometry" />
        </mxCell>
        <mxCell id="HTjEitjg_voOFouNTG_g-4" value="" style="image;html=1;image=img/lib/clip_art/networking/Router_Icon_128x128.png" parent="1" vertex="1">
          <mxGeometry x="300" y="360" width="50" height="55" as="geometry" />
        </mxCell>
        <mxCell id="HTjEitjg_voOFouNTG_g-12" style="rounded=0;orthogonalLoop=1;jettySize=auto;html=1;exitX=0.6;exitY=0.445;exitDx=0;exitDy=0;entryX=0.5;entryY=0.636;entryDx=0;entryDy=0;entryPerimeter=0;endArrow=none;endFill=0;strokeWidth=2;exitPerimeter=0;" parent="1" source="HTjEitjg_voOFouNTG_g-5" target="HTjEitjg_voOFouNTG_g-7" edge="1">
          <mxGeometry relative="1" as="geometry">
            <mxPoint x="399" y="454.5" as="sourcePoint" />
            <mxPoint x="459" y="416.99" as="targetPoint" />
          </mxGeometry>
        </mxCell>
        <mxCell id="HTjEitjg_voOFouNTG_g-5" value="" style="image;html=1;image=img/lib/clip_art/networking/Router_Icon_128x128.png" parent="1" vertex="1">
          <mxGeometry x="350" y="430" width="50" height="55" as="geometry" />
        </mxCell>
        <mxCell id="HTjEitjg_voOFouNTG_g-7" value="" style="image;html=1;image=img/lib/clip_art/networking/Router_Icon_128x128.png" parent="1" vertex="1">
          <mxGeometry x="425" y="375" width="50" height="55" as="geometry" />
        </mxCell>
        <mxCell id="HTjEitjg_voOFouNTG_g-8" value="" style="image;html=1;image=img/lib/clip_art/networking/Switch_128x128.png" parent="1" vertex="1">
          <mxGeometry x="510" y="415" width="50" height="60" as="geometry" />
        </mxCell>
        <mxCell id="HTjEitjg_voOFouNTG_g-13" style="rounded=0;orthogonalLoop=1;jettySize=auto;html=1;entryX=0.4;entryY=0.727;entryDx=0;entryDy=0;entryPerimeter=0;endArrow=none;endFill=0;strokeWidth=2;" parent="1" edge="1">
          <mxGeometry relative="1" as="geometry">
            <mxPoint x="365" y="443" as="sourcePoint" />
            <mxPoint x="325" y="402.9849999999999" as="targetPoint" />
          </mxGeometry>
        </mxCell>
        <mxCell id="HTjEitjg_voOFouNTG_g-14" style="rounded=0;orthogonalLoop=1;jettySize=auto;html=1;entryX=0.2;entryY=0.545;entryDx=0;entryDy=0;endArrow=none;endFill=0;entryPerimeter=0;strokeWidth=2;" parent="1" target="HTjEitjg_voOFouNTG_g-5" edge="1">
          <mxGeometry relative="1" as="geometry">
            <mxPoint x="230" y="440" as="sourcePoint" />
            <mxPoint x="310" y="398" as="targetPoint" />
          </mxGeometry>
        </mxCell>
        <mxCell id="HTjEitjg_voOFouNTG_g-15" style="rounded=0;orthogonalLoop=1;jettySize=auto;html=1;entryX=0.4;entryY=0.5;entryDx=0;entryDy=0;endArrow=none;endFill=0;exitX=1;exitY=0.5;exitDx=0;exitDy=0;entryPerimeter=0;strokeWidth=2;" parent="1" source="HTjEitjg_voOFouNTG_g-5" target="HTjEitjg_voOFouNTG_g-8" edge="1">
          <mxGeometry relative="1" as="geometry">
            <mxPoint x="250" y="450" as="sourcePoint" />
            <mxPoint x="320" y="408" as="targetPoint" />
          </mxGeometry>
        </mxCell>
        <mxCell id="HTjEitjg_voOFouNTG_g-16" style="rounded=0;orthogonalLoop=1;jettySize=auto;html=1;entryX=1;entryY=0.5;entryDx=0;entryDy=0;endArrow=none;endFill=0;strokeWidth=2;" parent="1" target="HTjEitjg_voOFouNTG_g-7" edge="1">
          <mxGeometry relative="1" as="geometry">
            <mxPoint x="530" y="440" as="sourcePoint" />
            <mxPoint x="330" y="418" as="targetPoint" />
          </mxGeometry>
        </mxCell>
        <mxCell id="HTjEitjg_voOFouNTG_g-24" style="rounded=0;orthogonalLoop=1;jettySize=auto;html=1;endArrow=none;endFill=0;strokeColor=#97D077;strokeWidth=3;" parent="1" source="HTjEitjg_voOFouNTG_g-22" target="HTjEitjg_voOFouNTG_g-23" edge="1">
          <mxGeometry relative="1" as="geometry" />
        </mxCell>
        <mxCell id="HTjEitjg_voOFouNTG_g-22" value="" style="verticalLabelPosition=bottom;sketch=0;aspect=fixed;html=1;verticalAlign=top;strokeColor=none;align=center;outlineConnect=0;shape=mxgraph.citrix.switch;fillColor=none;gradientColor=none;" parent="1" vertex="1">
          <mxGeometry x="208" y="266.35999999999996" width="60" height="27.07" as="geometry" />
        </mxCell>
        <mxCell id="HTjEitjg_voOFouNTG_g-23" value="" style="verticalLabelPosition=bottom;sketch=0;aspect=fixed;html=1;verticalAlign=top;strokeColor=none;align=center;outlineConnect=0;shape=mxgraph.citrix.switch;fillColor=none;gradientColor=none;" parent="1" vertex="1">
          <mxGeometry x="530" y="260" width="60" height="27.07" as="geometry" />
        </mxCell>
        <mxCell id="HTjEitjg_voOFouNTG_g-25" style="rounded=0;orthogonalLoop=1;jettySize=auto;html=1;endArrow=none;endFill=0;strokeWidth=2;strokeColor=#FF3333;dashed=1;" parent="1" target="HTjEitjg_voOFouNTG_g-23" edge="1">
          <mxGeometry relative="1" as="geometry">
            <mxPoint x="550" y="440" as="sourcePoint" />
            <mxPoint x="540" y="455" as="targetPoint" />
          </mxGeometry>
        </mxCell>
        <mxCell id="HTjEitjg_voOFouNTG_g-26" style="rounded=0;orthogonalLoop=1;jettySize=auto;html=1;endArrow=none;endFill=0;strokeWidth=2;strokeColor=#FF3333;dashed=1;" parent="1" edge="1">
          <mxGeometry relative="1" as="geometry">
            <mxPoint x="220.5" y="442.43" as="sourcePoint" />
            <mxPoint x="229.5" y="289.43" as="targetPoint" />
          </mxGeometry>
        </mxCell>
        <mxCell id="HTjEitjg_voOFouNTG_g-27" value="Overlay Network" style="text;strokeColor=none;align=center;fillColor=none;html=1;verticalAlign=middle;whiteSpace=wrap;rounded=0;fontSize=18;rotation=5;" parent="1" vertex="1">
          <mxGeometry x="234" y="206" width="160" height="30" as="geometry" />
        </mxCell>
        <mxCell id="HTjEitjg_voOFouNTG_g-28" value="Underlay Network" style="text;strokeColor=none;align=center;fillColor=none;html=1;verticalAlign=middle;whiteSpace=wrap;rounded=0;fontSize=18;rotation=5;" parent="1" vertex="1">
          <mxGeometry x="384" y="477" width="160" height="30" as="geometry" />
        </mxCell>
        <mxCell id="HTjEitjg_voOFouNTG_g-29" value="Virtual network decoupled from physical network" style="text;strokeColor=none;align=center;fillColor=none;html=1;verticalAlign=middle;whiteSpace=wrap;rounded=0;" parent="1" vertex="1">
          <mxGeometry x="70" y="340" width="100" height="30" as="geometry" />
        </mxCell>
        <mxCell id="HTjEitjg_voOFouNTG_g-30" value="" style="edgeStyle=segmentEdgeStyle;endArrow=classic;html=1;curved=0;rounded=0;endSize=8;startSize=8;entryX=0;entryY=0.5;entryDx=0;entryDy=0;" parent="1" target="HTjEitjg_voOFouNTG_g-2" edge="1">
          <mxGeometry width="50" height="50" relative="1" as="geometry">
            <mxPoint x="120" y="320" as="sourcePoint" />
            <mxPoint x="450" y="400" as="targetPoint" />
            <Array as="points">
              <mxPoint x="120" y="263" />
            </Array>
          </mxGeometry>
        </mxCell>
        <mxCell id="HTjEitjg_voOFouNTG_g-32" value="" style="edgeStyle=segmentEdgeStyle;endArrow=classic;html=1;curved=0;rounded=0;endSize=8;startSize=8;entryX=0.082;entryY=0.571;entryDx=0;entryDy=0;entryPerimeter=0;" parent="1" target="HTjEitjg_voOFouNTG_g-6" edge="1">
          <mxGeometry width="50" height="50" relative="1" as="geometry">
            <mxPoint x="120" y="388" as="sourcePoint" />
            <mxPoint x="196" y="330" as="targetPoint" />
            <Array as="points">
              <mxPoint x="120" y="422" />
            </Array>
          </mxGeometry>
        </mxCell>
      </root>
    </mxGraphModel>
  </diagram>
  <diagram name="Chp4-Fig10" id="urubB7Id9HcbHu4g_eVa">
    <mxGraphModel dx="1109" dy="817" grid="1" gridSize="10" guides="1" tooltips="1" connect="1" arrows="1" fold="1" page="1" pageScale="1" pageWidth="850" pageHeight="1100" math="0" shadow="0">
      <root>
        <mxCell id="4qJBBNhXdGszSzLOZBN8-0" />
        <mxCell id="4qJBBNhXdGszSzLOZBN8-1" parent="4qJBBNhXdGszSzLOZBN8-0" />
        <mxCell id="4qJBBNhXdGszSzLOZBN8-2" value="" style="rounded=0;whiteSpace=wrap;html=1;fontColor=#0066cc;" parent="4qJBBNhXdGszSzLOZBN8-1" vertex="1">
          <mxGeometry x="40" y="40" width="590" height="800" as="geometry" />
        </mxCell>
        <mxCell id="4qJBBNhXdGszSzLOZBN8-3" value="" style="rounded=0;whiteSpace=wrap;html=1;" parent="4qJBBNhXdGszSzLOZBN8-1" vertex="1">
          <mxGeometry x="1130" y="40" width="430" height="800" as="geometry" />
        </mxCell>
        <mxCell id="4qJBBNhXdGszSzLOZBN8-4" value="" style="rounded=0;whiteSpace=wrap;html=1;fontColor=#0066cc;" parent="4qJBBNhXdGszSzLOZBN8-1" vertex="1">
          <mxGeometry x="630" y="40" width="500" height="800" as="geometry" />
        </mxCell>
        <mxCell id="4qJBBNhXdGszSzLOZBN8-5" value="" style="rounded=0;whiteSpace=wrap;html=1;fillColor=#EBFFFF;strokeColor=none;" parent="4qJBBNhXdGszSzLOZBN8-1" vertex="1">
          <mxGeometry x="41" y="320" width="1518" height="280" as="geometry" />
        </mxCell>
        <mxCell id="4qJBBNhXdGszSzLOZBN8-6" value="" style="rounded=0;whiteSpace=wrap;html=1;fillColor=#f5f5f5;strokeColor=#666666;fontColor=#333333;" parent="4qJBBNhXdGszSzLOZBN8-1" vertex="1">
          <mxGeometry x="170" y="90" width="200" height="750" as="geometry" />
        </mxCell>
        <mxCell id="4qJBBNhXdGszSzLOZBN8-7" value="" style="rounded=1;whiteSpace=wrap;html=1;" parent="4qJBBNhXdGszSzLOZBN8-1" vertex="1">
          <mxGeometry x="60" y="610" width="200" height="220" as="geometry" />
        </mxCell>
        <mxCell id="4qJBBNhXdGszSzLOZBN8-8" value="" style="group" parent="4qJBBNhXdGszSzLOZBN8-1" vertex="1" connectable="0">
          <mxGeometry x="40" y="40" width="590" height="50" as="geometry" />
        </mxCell>
        <mxCell id="4qJBBNhXdGszSzLOZBN8-9" value="" style="rounded=0;whiteSpace=wrap;html=1;fillColor=#5762b3;" parent="4qJBBNhXdGszSzLOZBN8-8" vertex="1">
          <mxGeometry width="590" height="50" as="geometry" />
        </mxCell>
        <mxCell id="4qJBBNhXdGszSzLOZBN8-10" value="&lt;font color=&quot;#ffffff&quot; style=&quot;font-size: 24px;&quot;&gt;User Edge, Field Deployed Compute&lt;/font&gt;" style="text;strokeColor=none;align=center;fillColor=none;html=1;verticalAlign=middle;whiteSpace=wrap;rounded=0;" parent="4qJBBNhXdGszSzLOZBN8-8" vertex="1">
          <mxGeometry x="21.071428571428573" y="10" width="516.25" height="30" as="geometry" />
        </mxCell>
        <mxCell id="4qJBBNhXdGszSzLOZBN8-11" value="" style="group;fillColor=none;" parent="4qJBBNhXdGszSzLOZBN8-1" vertex="1" connectable="0">
          <mxGeometry x="630" y="40" width="500" height="50" as="geometry" />
        </mxCell>
        <mxCell id="4qJBBNhXdGszSzLOZBN8-12" value="" style="rounded=0;whiteSpace=wrap;html=1;fillColor=#d5e8d4;strokeColor=#82b366;" parent="4qJBBNhXdGszSzLOZBN8-11" vertex="1">
          <mxGeometry width="500" height="50" as="geometry" />
        </mxCell>
        <mxCell id="4qJBBNhXdGszSzLOZBN8-13" value="&lt;font style=&quot;font-size: 24px;&quot;&gt;Service Provider Edge / Regional Compute&lt;/font&gt;" style="text;strokeColor=none;align=center;fillColor=#d5e8d4;html=1;verticalAlign=middle;whiteSpace=wrap;rounded=0;" parent="4qJBBNhXdGszSzLOZBN8-11" vertex="1">
          <mxGeometry x="17.86" y="10" width="462.14" height="30" as="geometry" />
        </mxCell>
        <mxCell id="4qJBBNhXdGszSzLOZBN8-14" value="" style="group" parent="4qJBBNhXdGszSzLOZBN8-1" vertex="1" connectable="0">
          <mxGeometry x="1130" y="40" width="430" height="50" as="geometry" />
        </mxCell>
        <mxCell id="4qJBBNhXdGszSzLOZBN8-15" value="" style="rounded=0;whiteSpace=wrap;html=1;fillColor=#E7DBF0;" parent="4qJBBNhXdGszSzLOZBN8-14" vertex="1">
          <mxGeometry width="430" height="50" as="geometry" />
        </mxCell>
        <mxCell id="4qJBBNhXdGszSzLOZBN8-16" value="&lt;font style=&quot;font-size: 24px;&quot;&gt;Global and Cloud Compute&lt;/font&gt;" style="text;strokeColor=none;align=center;fillColor=none;html=1;verticalAlign=middle;whiteSpace=wrap;rounded=0;" parent="4qJBBNhXdGszSzLOZBN8-14" vertex="1">
          <mxGeometry x="53.75" y="10" width="322.5" height="30" as="geometry" />
        </mxCell>
        <mxCell id="4qJBBNhXdGszSzLOZBN8-17" value="&lt;font style=&quot;font-size: 24px;&quot;&gt;Infrastructure&lt;/font&gt;" style="text;strokeColor=none;align=center;fillColor=none;html=1;verticalAlign=middle;whiteSpace=wrap;rounded=0;rotation=-90;" parent="4qJBBNhXdGszSzLOZBN8-1" vertex="1">
          <mxGeometry x="-60" y="700" width="160" height="30" as="geometry" />
        </mxCell>
        <mxCell id="4qJBBNhXdGszSzLOZBN8-18" value="&lt;font style=&quot;font-size: 24px;&quot;&gt;Platform&lt;/font&gt;" style="text;strokeColor=none;align=center;fillColor=none;html=1;verticalAlign=middle;whiteSpace=wrap;rounded=0;rotation=-90;" parent="4qJBBNhXdGszSzLOZBN8-1" vertex="1">
          <mxGeometry x="-45" y="435" width="130" height="30" as="geometry" />
        </mxCell>
        <mxCell id="4qJBBNhXdGszSzLOZBN8-19" value="&lt;font style=&quot;font-size: 24px;&quot;&gt;Application&lt;/font&gt;" style="text;strokeColor=none;align=center;fillColor=none;html=1;verticalAlign=middle;whiteSpace=wrap;rounded=0;rotation=-90;" parent="4qJBBNhXdGszSzLOZBN8-1" vertex="1">
          <mxGeometry x="-60" y="190" width="160" height="30" as="geometry" />
        </mxCell>
        <mxCell id="4qJBBNhXdGszSzLOZBN8-20" value="&lt;span style=&quot;font-size: 10px&quot;&gt;SENSORS&lt;br&gt;&lt;/span&gt;" style="aspect=fixed;perimeter=ellipsePerimeter;html=1;align=center;shadow=0;dashed=0;fontColor=#4266cc;labelBackgroundColor=#ffffff;fontSize=12;spacingTop=-3;image;image=img/lib/ibm/users/sensor.svg;" parent="4qJBBNhXdGszSzLOZBN8-1" vertex="1">
          <mxGeometry x="88" y="620" width="32" height="31.2" as="geometry" />
        </mxCell>
        <mxCell id="4qJBBNhXdGszSzLOZBN8-21" value="&lt;font size=&quot;1&quot;&gt;ROBOTS&lt;/font&gt;" style="aspect=fixed;perimeter=ellipsePerimeter;html=1;align=center;shadow=0;dashed=0;fontColor=#0066cc;labelBackgroundColor=#ffffff;fontSize=12;spacingTop=-3;image;image=img/lib/ibm/users/user.svg;strokeColor=#4277BB;strokeWidth=2;" parent="4qJBBNhXdGszSzLOZBN8-1" vertex="1">
          <mxGeometry x="88" y="690" width="32" height="32" as="geometry" />
        </mxCell>
        <mxCell id="4qJBBNhXdGszSzLOZBN8-22" value="&lt;font style=&quot;font-size: 12px;&quot;&gt;fixed function devices&lt;br&gt;&lt;/font&gt;" style="text;strokeColor=none;align=center;fillColor=none;html=1;verticalAlign=middle;whiteSpace=wrap;rounded=0;" parent="4qJBBNhXdGszSzLOZBN8-1" vertex="1">
          <mxGeometry x="40" y="90" width="130" height="30" as="geometry" />
        </mxCell>
        <mxCell id="4qJBBNhXdGszSzLOZBN8-23" value="programmable devices" style="text;strokeColor=none;align=center;fillColor=none;html=1;verticalAlign=middle;whiteSpace=wrap;rounded=0;" parent="4qJBBNhXdGszSzLOZBN8-1" vertex="1">
          <mxGeometry x="190" y="90" width="140" height="30" as="geometry" />
        </mxCell>
        <mxCell id="4qJBBNhXdGszSzLOZBN8-24" value="edge servers &amp;amp; gateways" style="text;strokeColor=none;align=center;fillColor=none;html=1;verticalAlign=middle;whiteSpace=wrap;rounded=0;" parent="4qJBBNhXdGszSzLOZBN8-1" vertex="1">
          <mxGeometry x="400" y="90" width="150" height="30" as="geometry" />
        </mxCell>
        <mxCell id="4qJBBNhXdGszSzLOZBN8-25" value="&lt;font size=&quot;1&quot;&gt;STORAGE&lt;/font&gt;" style="aspect=fixed;perimeter=ellipsePerimeter;html=1;align=center;shadow=0;dashed=0;fontColor=#4277BB;labelBackgroundColor=#ffffff;fontSize=12;spacingTop=3;image;image=img/lib/ibm/data/data_services.svg;" parent="4qJBBNhXdGszSzLOZBN8-1" vertex="1">
          <mxGeometry x="443" y="760.39" width="32" height="31.22" as="geometry" />
        </mxCell>
        <mxCell id="4qJBBNhXdGszSzLOZBN8-26" value="shared &amp;amp; multi-tenant services" style="text;strokeColor=none;align=center;fillColor=none;html=1;verticalAlign=middle;whiteSpace=wrap;rounded=0;" parent="4qJBBNhXdGszSzLOZBN8-1" vertex="1">
          <mxGeometry x="660" y="90" width="170" height="30" as="geometry" />
        </mxCell>
        <mxCell id="4qJBBNhXdGszSzLOZBN8-27" value="regional cloud services" style="text;strokeColor=none;align=center;fillColor=none;html=1;verticalAlign=middle;whiteSpace=wrap;rounded=0;" parent="4qJBBNhXdGszSzLOZBN8-1" vertex="1">
          <mxGeometry x="900" y="90" width="170" height="30" as="geometry" />
        </mxCell>
        <mxCell id="4qJBBNhXdGszSzLOZBN8-28" value="&lt;font style=&quot;font-size: 10px;&quot;&gt;CAMERA&lt;/font&gt;" style="fontColor=#0066CC;verticalAlign=middle;verticalLabelPosition=bottom;labelPosition=center;align=center;html=1;outlineConnect=0;fillColor=#CCCCCC;strokeColor=#6881B3;gradientColor=none;gradientDirection=north;strokeWidth=2;shape=mxgraph.networks.security_camera;fontSize=11;spacingTop=-3;" parent="4qJBBNhXdGszSzLOZBN8-1" vertex="1">
          <mxGeometry x="205" y="700" width="30" height="30" as="geometry" />
        </mxCell>
        <mxCell id="4qJBBNhXdGszSzLOZBN8-29" value="&lt;font style=&quot;font-size: 10px;&quot;&gt;MOBILE &lt;br&gt;DEVICES&lt;/font&gt;" style="sketch=0;outlineConnect=0;fontColor=#0066cc;gradientColor=none;fillColor=#232F3D;strokeColor=none;dashed=0;verticalLabelPosition=bottom;verticalAlign=top;align=center;html=1;fontSize=12;fontStyle=0;aspect=fixed;pointerEvents=1;shape=mxgraph.aws4.mobile_client;spacingTop=-3;" parent="4qJBBNhXdGszSzLOZBN8-1" vertex="1">
          <mxGeometry x="205" y="620" width="21.02" height="40" as="geometry" />
        </mxCell>
        <mxCell id="4qJBBNhXdGszSzLOZBN8-30" value="&lt;font style=&quot;font-size: 10px;&quot;&gt;SENSORS&lt;/font&gt;" style="verticalLabelPosition=bottom;sketch=0;html=1;fillColor=#A153A0;strokeColor=#ffffff;verticalAlign=top;align=center;points=[[0,0.5,0],[0.125,0.25,0],[0.25,0,0],[0.5,0,0],[0.75,0,0],[0.875,0.25,0],[1,0.5,0],[0.875,0.75,0],[0.75,1,0],[0.5,1,0],[0.125,0.75,0]];pointerEvents=1;shape=mxgraph.cisco_safe.compositeIcon;bgIcon=mxgraph.cisco_safe.design.blank_device;resIcon=mxgraph.cisco_safe.design.sensor;fontColor=#0066cc;spacingTop=-3;" parent="4qJBBNhXdGszSzLOZBN8-1" vertex="1">
          <mxGeometry x="85" y="755.11" width="40" height="36.5" as="geometry" />
        </mxCell>
        <mxCell id="4qJBBNhXdGszSzLOZBN8-31" style="edgeStyle=orthogonalEdgeStyle;rounded=0;orthogonalLoop=1;jettySize=auto;html=1;entryX=1;entryY=0.25;entryDx=0;entryDy=0;startArrow=classic;startFill=1;" parent="4qJBBNhXdGszSzLOZBN8-1" source="4qJBBNhXdGszSzLOZBN8-33" target="4qJBBNhXdGszSzLOZBN8-7" edge="1">
          <mxGeometry relative="1" as="geometry" />
        </mxCell>
        <mxCell id="4qJBBNhXdGszSzLOZBN8-33" value="&lt;font style=&quot;font-size: 10px;&quot;&gt;RU&lt;/font&gt;" style="fontColor=#0066CC;verticalAlign=top;verticalLabelPosition=bottom;labelPosition=center;align=center;html=1;outlineConnect=0;fillColor=#CCCCCC;strokeColor=#6881B3;gradientColor=none;gradientDirection=north;strokeWidth=2;shape=mxgraph.networks.radio_tower;spacingTop=-3;" parent="4qJBBNhXdGszSzLOZBN8-1" vertex="1">
          <mxGeometry x="446" y="640" width="25" height="50" as="geometry" />
        </mxCell>
        <mxCell id="4qJBBNhXdGszSzLOZBN8-34" style="edgeStyle=orthogonalEdgeStyle;rounded=0;orthogonalLoop=1;jettySize=auto;html=1;entryX=0;entryY=0.5;entryDx=0;entryDy=0;jumpStyle=arc;" parent="4qJBBNhXdGszSzLOZBN8-1" edge="1">
          <mxGeometry relative="1" as="geometry">
            <mxPoint x="403" y="389" as="sourcePoint" />
            <mxPoint x="443.9999999999907" y="775.9999999999998" as="targetPoint" />
            <Array as="points">
              <mxPoint x="402" y="389" />
              <mxPoint x="402" y="776" />
            </Array>
          </mxGeometry>
        </mxCell>
        <mxCell id="4qJBBNhXdGszSzLOZBN8-35" style="edgeStyle=orthogonalEdgeStyle;rounded=0;orthogonalLoop=1;jettySize=auto;html=1;entryX=0.5;entryY=0;entryDx=0;entryDy=0;entryPerimeter=0;" parent="4qJBBNhXdGszSzLOZBN8-1" source="4qJBBNhXdGszSzLOZBN8-36" target="4qJBBNhXdGszSzLOZBN8-39" edge="1">
          <mxGeometry relative="1" as="geometry" />
        </mxCell>
        <mxCell id="4qJBBNhXdGszSzLOZBN8-36" value="&lt;font color=&quot;#0066cc&quot; style=&quot;font-size: 10px;&quot;&gt;MEC&lt;/font&gt;" style="verticalLabelPosition=top;html=1;verticalAlign=bottom;strokeWidth=1;align=center;outlineConnect=0;dashed=0;outlineConnect=0;shape=mxgraph.aws3d.application2;fillColor=#86E83A;strokeColor=#B0F373;aspect=fixed;labelPosition=center;" parent="4qJBBNhXdGszSzLOZBN8-1" vertex="1">
          <mxGeometry x="378" y="349" width="46.79" height="40" as="geometry" />
        </mxCell>
        <mxCell id="4qJBBNhXdGszSzLOZBN8-37" style="edgeStyle=orthogonalEdgeStyle;rounded=0;orthogonalLoop=1;jettySize=auto;html=1;entryX=0.5;entryY=0.15;entryDx=0;entryDy=0;entryPerimeter=0;startArrow=classic;startFill=1;" parent="4qJBBNhXdGszSzLOZBN8-1" source="4qJBBNhXdGszSzLOZBN8-39" target="4qJBBNhXdGszSzLOZBN8-33" edge="1">
          <mxGeometry relative="1" as="geometry" />
        </mxCell>
        <mxCell id="4qJBBNhXdGszSzLOZBN8-38" style="edgeStyle=orthogonalEdgeStyle;rounded=0;orthogonalLoop=1;jettySize=auto;html=1;entryX=0;entryY=0.5;entryDx=0;entryDy=0;entryPerimeter=0;startArrow=classic;startFill=1;" parent="4qJBBNhXdGszSzLOZBN8-1" source="4qJBBNhXdGszSzLOZBN8-39" target="4qJBBNhXdGszSzLOZBN8-40" edge="1">
          <mxGeometry relative="1" as="geometry" />
        </mxCell>
        <mxCell id="4qJBBNhXdGszSzLOZBN8-39" value="&lt;font style=&quot;font-size: 10px;&quot; color=&quot;#0066cc&quot;&gt;GATEWAY&lt;/font&gt;" style="sketch=0;aspect=fixed;pointerEvents=1;shadow=0;dashed=0;html=1;strokeColor=none;labelPosition=center;verticalLabelPosition=bottom;verticalAlign=top;align=center;fillColor=#00188D;shape=mxgraph.mscae.enterprise.gateway" parent="4qJBBNhXdGszSzLOZBN8-1" vertex="1">
          <mxGeometry x="439" y="460" width="40" height="40" as="geometry" />
        </mxCell>
        <mxCell id="4qJBBNhXdGszSzLOZBN8-40" value="&lt;font style=&quot;font-size: 10px;&quot; color=&quot;#0066cc&quot;&gt;GATEWAY&lt;/font&gt;" style="sketch=0;aspect=fixed;pointerEvents=1;shadow=0;dashed=0;html=1;strokeColor=none;labelPosition=center;verticalLabelPosition=bottom;verticalAlign=top;align=center;fillColor=#00188D;shape=mxgraph.mscae.enterprise.gateway" parent="4qJBBNhXdGszSzLOZBN8-1" vertex="1">
          <mxGeometry x="1190" y="460" width="40" height="40" as="geometry" />
        </mxCell>
        <mxCell id="4qJBBNhXdGszSzLOZBN8-41" value="" style="line;strokeWidth=1;direction=south;html=1;" parent="4qJBBNhXdGszSzLOZBN8-1" vertex="1">
          <mxGeometry x="625" y="320" width="10" height="280" as="geometry" />
        </mxCell>
        <mxCell id="4qJBBNhXdGszSzLOZBN8-42" value="" style="line;strokeWidth=1;direction=south;html=1;" parent="4qJBBNhXdGszSzLOZBN8-1" vertex="1">
          <mxGeometry x="1126" y="320" width="8" height="280" as="geometry" />
        </mxCell>
        <mxCell id="4qJBBNhXdGszSzLOZBN8-43" value="&lt;font style=&quot;font-size: 10px;&quot; color=&quot;#4266cc&quot;&gt;EDGE SERVICES&lt;/font&gt;" style="image;aspect=fixed;perimeter=ellipsePerimeter;html=1;align=center;shadow=0;dashed=0;fontColor=#4277BB;labelBackgroundColor=none;fontSize=12;spacingTop=-3;image=img/lib/ibm/infrastructure/edge_services.svg;labelBorderColor=none;" parent="4qJBBNhXdGszSzLOZBN8-1" vertex="1">
          <mxGeometry x="670" y="450" width="50" height="50" as="geometry" />
        </mxCell>
        <mxCell id="4qJBBNhXdGszSzLOZBN8-47" style="edgeStyle=orthogonalEdgeStyle;rounded=0;orthogonalLoop=1;jettySize=auto;html=1;entryX=0.5;entryY=0;entryDx=0;entryDy=0;entryPerimeter=0;exitX=0;exitY=0.5;exitDx=0;exitDy=0;" parent="4qJBBNhXdGszSzLOZBN8-1" source="da6nA2D6GGwG2ZCugCRv-0" target="4qJBBNhXdGszSzLOZBN8-40" edge="1">
          <mxGeometry relative="1" as="geometry">
            <mxPoint x="1310.0000888890468" y="395.0666666666666" as="sourcePoint" />
          </mxGeometry>
        </mxCell>
        <mxCell id="uGMq18s7PrfyQF6d4UuI-0" value="&lt;font style=&quot;font-size: 10px;&quot;&gt;CLOUD SERVICES&lt;/font&gt;" style="image;aspect=fixed;perimeter=ellipsePerimeter;html=1;align=center;shadow=0;dashed=0;fontColor=#4277BB;labelBackgroundColor=none;fontSize=12;spacingTop=-3;image=img/lib/ibm/infrastructure/transformation_connectivity.svg;" parent="4qJBBNhXdGszSzLOZBN8-1" vertex="1">
          <mxGeometry x="1310" y="532" width="50" height="50" as="geometry" />
        </mxCell>
        <mxCell id="uGMq18s7PrfyQF6d4UuI-1" style="edgeStyle=orthogonalEdgeStyle;rounded=0;orthogonalLoop=1;jettySize=auto;html=1;entryX=0.5;entryY=1;entryDx=0;entryDy=0;entryPerimeter=0;exitX=0;exitY=0.5;exitDx=0;exitDy=0;startArrow=classic;startFill=1;" parent="4qJBBNhXdGszSzLOZBN8-1" source="uGMq18s7PrfyQF6d4UuI-0" edge="1">
          <mxGeometry relative="1" as="geometry">
            <mxPoint x="1320" y="405" as="sourcePoint" />
            <mxPoint x="1210" y="500" as="targetPoint" />
          </mxGeometry>
        </mxCell>
        <mxCell id="da6nA2D6GGwG2ZCugCRv-0" value="&lt;font style=&quot;font-size: 10px;&quot;&gt;CORE&lt;/font&gt;" style="image;aspect=fixed;perimeter=ellipsePerimeter;html=1;align=center;shadow=0;dashed=0;fontColor=#4277BB;labelBackgroundColor=default;fontSize=12;spacingTop=-3;image=img/lib/ibm/vpc/BareMetalServer.svg;" parent="4qJBBNhXdGszSzLOZBN8-1" vertex="1">
          <mxGeometry x="1310" y="370" width="50" height="50" as="geometry" />
        </mxCell>
        <mxCell id="li20lAcf0gKvbs3gxDgF-0" style="edgeStyle=orthogonalEdgeStyle;rounded=0;orthogonalLoop=1;jettySize=auto;html=1;entryX=1;entryY=0.5;entryDx=0;entryDy=0;entryPerimeter=0;" parent="4qJBBNhXdGszSzLOZBN8-1" source="li20lAcf0gKvbs3gxDgF-1" edge="1">
          <mxGeometry relative="1" as="geometry">
            <mxPoint x="1230" y="480" as="targetPoint" />
          </mxGeometry>
        </mxCell>
        <mxCell id="li20lAcf0gKvbs3gxDgF-1" value="&lt;font style=&quot;font-size: 10px;&quot;&gt;VRAN&lt;/font&gt;" style="image;aspect=fixed;perimeter=ellipsePerimeter;html=1;align=center;shadow=0;dashed=0;fontColor=#4277BB;labelBackgroundColor=none;fontSize=12;spacingTop=-3;image=img/lib/ibm/infrastructure/load_balancing_routing.svg;" parent="4qJBBNhXdGszSzLOZBN8-1" vertex="1">
          <mxGeometry x="1310" y="455" width="50" height="50" as="geometry" />
        </mxCell>
      </root>
    </mxGraphModel>
  </diagram>
  <diagram name="Chp4-Fig11" id="BfmhtqRsVfVSqnq7fGLQ">
    <mxGraphModel dx="1109" dy="817" grid="1" gridSize="10" guides="1" tooltips="1" connect="1" arrows="1" fold="1" page="1" pageScale="1" pageWidth="850" pageHeight="1100" math="0" shadow="0">
      <root>
        <mxCell id="qWieJK0spwF9RIx0VZWi-0" />
        <mxCell id="qWieJK0spwF9RIx0VZWi-1" parent="qWieJK0spwF9RIx0VZWi-0" />
        <mxCell id="qWieJK0spwF9RIx0VZWi-2" value="" style="rounded=0;whiteSpace=wrap;html=1;fontColor=#0066cc;" parent="qWieJK0spwF9RIx0VZWi-1" vertex="1">
          <mxGeometry x="40" y="40" width="590" height="800" as="geometry" />
        </mxCell>
        <mxCell id="qWieJK0spwF9RIx0VZWi-3" value="" style="rounded=0;whiteSpace=wrap;html=1;" parent="qWieJK0spwF9RIx0VZWi-1" vertex="1">
          <mxGeometry x="1130" y="40" width="430" height="800" as="geometry" />
        </mxCell>
        <mxCell id="qWieJK0spwF9RIx0VZWi-4" value="" style="rounded=0;whiteSpace=wrap;html=1;fontColor=#0066cc;" parent="qWieJK0spwF9RIx0VZWi-1" vertex="1">
          <mxGeometry x="630" y="40" width="500" height="800" as="geometry" />
        </mxCell>
        <mxCell id="qWieJK0spwF9RIx0VZWi-5" value="" style="rounded=0;whiteSpace=wrap;html=1;fillColor=#EBFFFF;strokeColor=none;" parent="qWieJK0spwF9RIx0VZWi-1" vertex="1">
          <mxGeometry x="41" y="320" width="1518" height="280" as="geometry" />
        </mxCell>
        <mxCell id="qWieJK0spwF9RIx0VZWi-6" value="" style="rounded=0;whiteSpace=wrap;html=1;fillColor=#f5f5f5;strokeColor=#666666;fontColor=#333333;" parent="qWieJK0spwF9RIx0VZWi-1" vertex="1">
          <mxGeometry x="170" y="90" width="200" height="750" as="geometry" />
        </mxCell>
        <mxCell id="qWieJK0spwF9RIx0VZWi-7" value="" style="rounded=1;whiteSpace=wrap;html=1;" parent="qWieJK0spwF9RIx0VZWi-1" vertex="1">
          <mxGeometry x="60" y="610" width="200" height="220" as="geometry" />
        </mxCell>
        <mxCell id="qWieJK0spwF9RIx0VZWi-8" value="" style="group" parent="qWieJK0spwF9RIx0VZWi-1" vertex="1" connectable="0">
          <mxGeometry x="40" y="40" width="590" height="50" as="geometry" />
        </mxCell>
        <mxCell id="qWieJK0spwF9RIx0VZWi-9" value="" style="rounded=0;whiteSpace=wrap;html=1;fillColor=#5762b3;" parent="qWieJK0spwF9RIx0VZWi-8" vertex="1">
          <mxGeometry width="590" height="50" as="geometry" />
        </mxCell>
        <mxCell id="qWieJK0spwF9RIx0VZWi-10" value="&lt;font color=&quot;#ffffff&quot; style=&quot;font-size: 24px;&quot;&gt;User Edge, Field Deployed Compute&lt;/font&gt;" style="text;strokeColor=none;align=center;fillColor=none;html=1;verticalAlign=middle;whiteSpace=wrap;rounded=0;" parent="qWieJK0spwF9RIx0VZWi-8" vertex="1">
          <mxGeometry x="21.071428571428573" y="10" width="516.25" height="30" as="geometry" />
        </mxCell>
        <mxCell id="qWieJK0spwF9RIx0VZWi-11" value="" style="group;fillColor=none;" parent="qWieJK0spwF9RIx0VZWi-1" vertex="1" connectable="0">
          <mxGeometry x="630" y="40" width="500" height="50" as="geometry" />
        </mxCell>
        <mxCell id="qWieJK0spwF9RIx0VZWi-12" value="" style="rounded=0;whiteSpace=wrap;html=1;fillColor=#d5e8d4;strokeColor=#82b366;" parent="qWieJK0spwF9RIx0VZWi-11" vertex="1">
          <mxGeometry width="500" height="50" as="geometry" />
        </mxCell>
        <mxCell id="qWieJK0spwF9RIx0VZWi-13" value="&lt;font style=&quot;font-size: 24px;&quot;&gt;Service Provider Edge / Regional Compute&lt;/font&gt;" style="text;strokeColor=none;align=center;fillColor=#d5e8d4;html=1;verticalAlign=middle;whiteSpace=wrap;rounded=0;" parent="qWieJK0spwF9RIx0VZWi-11" vertex="1">
          <mxGeometry x="17.86" y="10" width="462.14" height="30" as="geometry" />
        </mxCell>
        <mxCell id="qWieJK0spwF9RIx0VZWi-14" value="" style="group" parent="qWieJK0spwF9RIx0VZWi-1" vertex="1" connectable="0">
          <mxGeometry x="1130" y="40" width="430" height="50" as="geometry" />
        </mxCell>
        <mxCell id="qWieJK0spwF9RIx0VZWi-15" value="" style="rounded=0;whiteSpace=wrap;html=1;fillColor=#E7DBF0;" parent="qWieJK0spwF9RIx0VZWi-14" vertex="1">
          <mxGeometry width="430" height="50" as="geometry" />
        </mxCell>
        <mxCell id="qWieJK0spwF9RIx0VZWi-16" value="&lt;font style=&quot;font-size: 24px;&quot;&gt;Global and Cloud Compute&lt;/font&gt;" style="text;strokeColor=none;align=center;fillColor=none;html=1;verticalAlign=middle;whiteSpace=wrap;rounded=0;" parent="qWieJK0spwF9RIx0VZWi-14" vertex="1">
          <mxGeometry x="53.75" y="10" width="322.5" height="30" as="geometry" />
        </mxCell>
        <mxCell id="qWieJK0spwF9RIx0VZWi-17" value="&lt;font style=&quot;font-size: 24px;&quot;&gt;Infrastructure&lt;/font&gt;" style="text;strokeColor=none;align=center;fillColor=none;html=1;verticalAlign=middle;whiteSpace=wrap;rounded=0;rotation=-90;" parent="qWieJK0spwF9RIx0VZWi-1" vertex="1">
          <mxGeometry x="-60" y="700" width="160" height="30" as="geometry" />
        </mxCell>
        <mxCell id="qWieJK0spwF9RIx0VZWi-18" value="&lt;font style=&quot;font-size: 24px;&quot;&gt;Platform&lt;/font&gt;" style="text;strokeColor=none;align=center;fillColor=none;html=1;verticalAlign=middle;whiteSpace=wrap;rounded=0;rotation=-90;" parent="qWieJK0spwF9RIx0VZWi-1" vertex="1">
          <mxGeometry x="-45" y="435" width="130" height="30" as="geometry" />
        </mxCell>
        <mxCell id="qWieJK0spwF9RIx0VZWi-19" value="&lt;font style=&quot;font-size: 24px;&quot;&gt;Application&lt;/font&gt;" style="text;strokeColor=none;align=center;fillColor=none;html=1;verticalAlign=middle;whiteSpace=wrap;rounded=0;rotation=-90;" parent="qWieJK0spwF9RIx0VZWi-1" vertex="1">
          <mxGeometry x="-60" y="190" width="160" height="30" as="geometry" />
        </mxCell>
        <mxCell id="qWieJK0spwF9RIx0VZWi-20" value="&lt;span style=&quot;font-size: 10px&quot;&gt;SENSORS&lt;br&gt;&lt;/span&gt;" style="aspect=fixed;perimeter=ellipsePerimeter;html=1;align=center;shadow=0;dashed=0;fontColor=#4266cc;labelBackgroundColor=#ffffff;fontSize=12;spacingTop=-3;image;image=img/lib/ibm/users/sensor.svg;" parent="qWieJK0spwF9RIx0VZWi-1" vertex="1">
          <mxGeometry x="88" y="620" width="32" height="31.2" as="geometry" />
        </mxCell>
        <mxCell id="qWieJK0spwF9RIx0VZWi-21" value="&lt;font size=&quot;1&quot;&gt;ROBOTS&lt;/font&gt;" style="aspect=fixed;perimeter=ellipsePerimeter;html=1;align=center;shadow=0;dashed=0;fontColor=#0066cc;labelBackgroundColor=#ffffff;fontSize=12;spacingTop=-3;image;image=img/lib/ibm/users/user.svg;strokeColor=#4277BB;strokeWidth=2;" parent="qWieJK0spwF9RIx0VZWi-1" vertex="1">
          <mxGeometry x="88" y="690" width="32" height="32" as="geometry" />
        </mxCell>
        <mxCell id="qWieJK0spwF9RIx0VZWi-22" value="&lt;font style=&quot;font-size: 12px;&quot;&gt;fixed function devices&lt;br&gt;&lt;/font&gt;" style="text;strokeColor=none;align=center;fillColor=none;html=1;verticalAlign=middle;whiteSpace=wrap;rounded=0;" parent="qWieJK0spwF9RIx0VZWi-1" vertex="1">
          <mxGeometry x="40" y="90" width="130" height="30" as="geometry" />
        </mxCell>
        <mxCell id="qWieJK0spwF9RIx0VZWi-23" value="programmable devices" style="text;strokeColor=none;align=center;fillColor=none;html=1;verticalAlign=middle;whiteSpace=wrap;rounded=0;" parent="qWieJK0spwF9RIx0VZWi-1" vertex="1">
          <mxGeometry x="190" y="90" width="140" height="30" as="geometry" />
        </mxCell>
        <mxCell id="qWieJK0spwF9RIx0VZWi-24" value="edge servers &amp;amp; gateways" style="text;strokeColor=none;align=center;fillColor=none;html=1;verticalAlign=middle;whiteSpace=wrap;rounded=0;" parent="qWieJK0spwF9RIx0VZWi-1" vertex="1">
          <mxGeometry x="400" y="90" width="150" height="30" as="geometry" />
        </mxCell>
        <mxCell id="qWieJK0spwF9RIx0VZWi-25" value="&lt;font size=&quot;1&quot;&gt;STORAGE&lt;/font&gt;" style="aspect=fixed;perimeter=ellipsePerimeter;html=1;align=center;shadow=0;dashed=0;fontColor=#4277BB;labelBackgroundColor=#ffffff;fontSize=12;spacingTop=3;image;image=img/lib/ibm/data/data_services.svg;" parent="qWieJK0spwF9RIx0VZWi-1" vertex="1">
          <mxGeometry x="443" y="760.39" width="32" height="31.22" as="geometry" />
        </mxCell>
        <mxCell id="qWieJK0spwF9RIx0VZWi-26" value="shared &amp;amp; multi-tenant services" style="text;strokeColor=none;align=center;fillColor=none;html=1;verticalAlign=middle;whiteSpace=wrap;rounded=0;" parent="qWieJK0spwF9RIx0VZWi-1" vertex="1">
          <mxGeometry x="660" y="90" width="170" height="30" as="geometry" />
        </mxCell>
        <mxCell id="qWieJK0spwF9RIx0VZWi-27" value="regional cloud services" style="text;strokeColor=none;align=center;fillColor=none;html=1;verticalAlign=middle;whiteSpace=wrap;rounded=0;" parent="qWieJK0spwF9RIx0VZWi-1" vertex="1">
          <mxGeometry x="900" y="90" width="170" height="30" as="geometry" />
        </mxCell>
        <mxCell id="qWieJK0spwF9RIx0VZWi-28" value="&lt;font style=&quot;font-size: 10px;&quot;&gt;CAMERA&lt;/font&gt;" style="fontColor=#0066CC;verticalAlign=middle;verticalLabelPosition=bottom;labelPosition=center;align=center;html=1;outlineConnect=0;fillColor=#CCCCCC;strokeColor=#6881B3;gradientColor=none;gradientDirection=north;strokeWidth=2;shape=mxgraph.networks.security_camera;fontSize=11;spacingTop=-3;" parent="qWieJK0spwF9RIx0VZWi-1" vertex="1">
          <mxGeometry x="205" y="700" width="30" height="30" as="geometry" />
        </mxCell>
        <mxCell id="qWieJK0spwF9RIx0VZWi-29" value="&lt;font style=&quot;font-size: 10px;&quot;&gt;MOBILE &lt;br&gt;DEVICES&lt;/font&gt;" style="sketch=0;outlineConnect=0;fontColor=#0066cc;gradientColor=none;fillColor=#232F3D;strokeColor=none;dashed=0;verticalLabelPosition=bottom;verticalAlign=top;align=center;html=1;fontSize=12;fontStyle=0;aspect=fixed;pointerEvents=1;shape=mxgraph.aws4.mobile_client;spacingTop=-3;" parent="qWieJK0spwF9RIx0VZWi-1" vertex="1">
          <mxGeometry x="205" y="620" width="21.02" height="40" as="geometry" />
        </mxCell>
        <mxCell id="qWieJK0spwF9RIx0VZWi-30" value="&lt;font style=&quot;font-size: 10px;&quot;&gt;SENSORS&lt;/font&gt;" style="verticalLabelPosition=bottom;sketch=0;html=1;fillColor=#A153A0;strokeColor=#ffffff;verticalAlign=top;align=center;points=[[0,0.5,0],[0.125,0.25,0],[0.25,0,0],[0.5,0,0],[0.75,0,0],[0.875,0.25,0],[1,0.5,0],[0.875,0.75,0],[0.75,1,0],[0.5,1,0],[0.125,0.75,0]];pointerEvents=1;shape=mxgraph.cisco_safe.compositeIcon;bgIcon=mxgraph.cisco_safe.design.blank_device;resIcon=mxgraph.cisco_safe.design.sensor;fontColor=#0066cc;spacingTop=-3;" parent="qWieJK0spwF9RIx0VZWi-1" vertex="1">
          <mxGeometry x="85" y="755.11" width="40" height="36.5" as="geometry" />
        </mxCell>
        <mxCell id="qWieJK0spwF9RIx0VZWi-31" style="edgeStyle=orthogonalEdgeStyle;rounded=0;orthogonalLoop=1;jettySize=auto;html=1;entryX=1;entryY=0.25;entryDx=0;entryDy=0;startArrow=classic;startFill=1;" parent="qWieJK0spwF9RIx0VZWi-1" source="qWieJK0spwF9RIx0VZWi-32" target="qWieJK0spwF9RIx0VZWi-7" edge="1">
          <mxGeometry relative="1" as="geometry" />
        </mxCell>
        <mxCell id="qWieJK0spwF9RIx0VZWi-32" value="&lt;font style=&quot;font-size: 10px;&quot;&gt;RU&lt;/font&gt;" style="fontColor=#0066CC;verticalAlign=top;verticalLabelPosition=bottom;labelPosition=center;align=center;html=1;outlineConnect=0;fillColor=#CCCCCC;strokeColor=#6881B3;gradientColor=none;gradientDirection=north;strokeWidth=2;shape=mxgraph.networks.radio_tower;spacingTop=-3;" parent="qWieJK0spwF9RIx0VZWi-1" vertex="1">
          <mxGeometry x="446" y="640" width="25" height="50" as="geometry" />
        </mxCell>
        <mxCell id="qWieJK0spwF9RIx0VZWi-33" style="edgeStyle=orthogonalEdgeStyle;rounded=0;orthogonalLoop=1;jettySize=auto;html=1;entryX=0;entryY=0.5;entryDx=0;entryDy=0;jumpStyle=arc;" parent="qWieJK0spwF9RIx0VZWi-1" edge="1">
          <mxGeometry relative="1" as="geometry">
            <mxPoint x="403" y="389" as="sourcePoint" />
            <mxPoint x="443.9999999999907" y="775.9999999999998" as="targetPoint" />
            <Array as="points">
              <mxPoint x="402" y="389" />
              <mxPoint x="402" y="776" />
            </Array>
          </mxGeometry>
        </mxCell>
        <mxCell id="qWieJK0spwF9RIx0VZWi-34" style="edgeStyle=orthogonalEdgeStyle;rounded=0;orthogonalLoop=1;jettySize=auto;html=1;entryX=0.5;entryY=0;entryDx=0;entryDy=0;entryPerimeter=0;" parent="qWieJK0spwF9RIx0VZWi-1" source="qWieJK0spwF9RIx0VZWi-35" target="qWieJK0spwF9RIx0VZWi-38" edge="1">
          <mxGeometry relative="1" as="geometry" />
        </mxCell>
        <mxCell id="qWieJK0spwF9RIx0VZWi-35" value="&lt;font color=&quot;#0066cc&quot; style=&quot;font-size: 10px;&quot;&gt;MEC&lt;/font&gt;" style="verticalLabelPosition=top;html=1;verticalAlign=bottom;strokeWidth=1;align=center;outlineConnect=0;dashed=0;outlineConnect=0;shape=mxgraph.aws3d.application2;fillColor=#86E83A;strokeColor=#B0F373;aspect=fixed;labelPosition=center;" parent="qWieJK0spwF9RIx0VZWi-1" vertex="1">
          <mxGeometry x="378" y="349" width="46.79" height="40" as="geometry" />
        </mxCell>
        <mxCell id="qWieJK0spwF9RIx0VZWi-36" style="edgeStyle=orthogonalEdgeStyle;rounded=0;orthogonalLoop=1;jettySize=auto;html=1;entryX=0.5;entryY=0.15;entryDx=0;entryDy=0;entryPerimeter=0;startArrow=classic;startFill=1;" parent="qWieJK0spwF9RIx0VZWi-1" source="qWieJK0spwF9RIx0VZWi-38" target="qWieJK0spwF9RIx0VZWi-32" edge="1">
          <mxGeometry relative="1" as="geometry" />
        </mxCell>
        <mxCell id="qWieJK0spwF9RIx0VZWi-37" style="edgeStyle=orthogonalEdgeStyle;rounded=0;orthogonalLoop=1;jettySize=auto;html=1;entryX=0;entryY=0.5;entryDx=0;entryDy=0;entryPerimeter=0;startArrow=classic;startFill=1;" parent="qWieJK0spwF9RIx0VZWi-1" source="qWieJK0spwF9RIx0VZWi-38" target="qWieJK0spwF9RIx0VZWi-39" edge="1">
          <mxGeometry relative="1" as="geometry" />
        </mxCell>
        <mxCell id="qWieJK0spwF9RIx0VZWi-38" value="&lt;font style=&quot;font-size: 10px;&quot; color=&quot;#0066cc&quot;&gt;GATEWAY&lt;/font&gt;" style="sketch=0;aspect=fixed;pointerEvents=1;shadow=0;dashed=0;html=1;strokeColor=none;labelPosition=center;verticalLabelPosition=bottom;verticalAlign=top;align=center;fillColor=#00188D;shape=mxgraph.mscae.enterprise.gateway" parent="qWieJK0spwF9RIx0VZWi-1" vertex="1">
          <mxGeometry x="439" y="460" width="40" height="40" as="geometry" />
        </mxCell>
        <mxCell id="qWieJK0spwF9RIx0VZWi-39" value="&lt;font style=&quot;font-size: 10px;&quot; color=&quot;#0066cc&quot;&gt;GATEWAY&lt;/font&gt;" style="sketch=0;aspect=fixed;pointerEvents=1;shadow=0;dashed=0;html=1;strokeColor=none;labelPosition=center;verticalLabelPosition=bottom;verticalAlign=top;align=center;fillColor=#00188D;shape=mxgraph.mscae.enterprise.gateway" parent="qWieJK0spwF9RIx0VZWi-1" vertex="1">
          <mxGeometry x="1190" y="460" width="40" height="40" as="geometry" />
        </mxCell>
        <mxCell id="qWieJK0spwF9RIx0VZWi-40" value="" style="line;strokeWidth=1;direction=south;html=1;" parent="qWieJK0spwF9RIx0VZWi-1" vertex="1">
          <mxGeometry x="625" y="320" width="10" height="280" as="geometry" />
        </mxCell>
        <mxCell id="qWieJK0spwF9RIx0VZWi-41" value="" style="line;strokeWidth=1;direction=south;html=1;" parent="qWieJK0spwF9RIx0VZWi-1" vertex="1">
          <mxGeometry x="1126" y="320" width="8" height="280" as="geometry" />
        </mxCell>
        <mxCell id="qWieJK0spwF9RIx0VZWi-42" value="&lt;font style=&quot;font-size: 10px;&quot; color=&quot;#4266cc&quot;&gt;EDGE SERVICES&lt;/font&gt;" style="image;aspect=fixed;perimeter=ellipsePerimeter;html=1;align=center;shadow=0;dashed=0;fontColor=#4277BB;labelBackgroundColor=none;fontSize=12;spacingTop=-3;image=img/lib/ibm/infrastructure/edge_services.svg;labelBorderColor=none;" parent="qWieJK0spwF9RIx0VZWi-1" vertex="1">
          <mxGeometry x="670" y="450" width="50" height="50" as="geometry" />
        </mxCell>
        <mxCell id="qWieJK0spwF9RIx0VZWi-43" style="edgeStyle=orthogonalEdgeStyle;rounded=0;orthogonalLoop=1;jettySize=auto;html=1;entryX=0.5;entryY=0;entryDx=0;entryDy=0;entryPerimeter=0;exitX=0;exitY=0.5;exitDx=0;exitDy=0;" parent="qWieJK0spwF9RIx0VZWi-1" source="qWieJK0spwF9RIx0VZWi-46" target="qWieJK0spwF9RIx0VZWi-39" edge="1">
          <mxGeometry relative="1" as="geometry">
            <mxPoint x="1310.0000888890468" y="395.0666666666666" as="sourcePoint" />
          </mxGeometry>
        </mxCell>
        <mxCell id="qWieJK0spwF9RIx0VZWi-44" value="&lt;font style=&quot;font-size: 10px;&quot;&gt;CLOUD SERVICES&lt;/font&gt;" style="image;aspect=fixed;perimeter=ellipsePerimeter;html=1;align=center;shadow=0;dashed=0;fontColor=#4277BB;labelBackgroundColor=none;fontSize=12;spacingTop=-3;image=img/lib/ibm/infrastructure/transformation_connectivity.svg;" parent="qWieJK0spwF9RIx0VZWi-1" vertex="1">
          <mxGeometry x="1310" y="532" width="50" height="50" as="geometry" />
        </mxCell>
        <mxCell id="qWieJK0spwF9RIx0VZWi-45" style="edgeStyle=orthogonalEdgeStyle;rounded=0;orthogonalLoop=1;jettySize=auto;html=1;entryX=0.5;entryY=1;entryDx=0;entryDy=0;entryPerimeter=0;exitX=0;exitY=0.5;exitDx=0;exitDy=0;startArrow=classic;startFill=1;" parent="qWieJK0spwF9RIx0VZWi-1" source="qWieJK0spwF9RIx0VZWi-44" edge="1">
          <mxGeometry relative="1" as="geometry">
            <mxPoint x="1320" y="405" as="sourcePoint" />
            <mxPoint x="1210" y="500" as="targetPoint" />
          </mxGeometry>
        </mxCell>
        <mxCell id="qWieJK0spwF9RIx0VZWi-46" value="&lt;font style=&quot;font-size: 10px;&quot;&gt;CORE&lt;/font&gt;" style="image;aspect=fixed;perimeter=ellipsePerimeter;html=1;align=center;shadow=0;dashed=0;fontColor=#4277BB;labelBackgroundColor=default;fontSize=12;spacingTop=-3;image=img/lib/ibm/vpc/BareMetalServer.svg;" parent="qWieJK0spwF9RIx0VZWi-1" vertex="1">
          <mxGeometry x="1310" y="370" width="50" height="50" as="geometry" />
        </mxCell>
        <mxCell id="_qxqbZ9-g9Q8WZ-1fdAb-0" style="edgeStyle=orthogonalEdgeStyle;rounded=0;orthogonalLoop=1;jettySize=auto;html=1;entryX=0;entryY=0.5;entryDx=0;entryDy=0;entryPerimeter=0;" parent="qWieJK0spwF9RIx0VZWi-1" target="_qxqbZ9-g9Q8WZ-1fdAb-3" edge="1">
          <mxGeometry relative="1" as="geometry">
            <mxPoint x="528" y="665" as="targetPoint" />
            <mxPoint x="471" y="665" as="sourcePoint" />
          </mxGeometry>
        </mxCell>
        <mxCell id="_qxqbZ9-g9Q8WZ-1fdAb-1" value="" style="edgeStyle=orthogonalEdgeStyle;rounded=0;orthogonalLoop=1;jettySize=auto;html=1;" parent="qWieJK0spwF9RIx0VZWi-1" target="_qxqbZ9-g9Q8WZ-1fdAb-2" edge="1">
          <mxGeometry relative="1" as="geometry">
            <mxPoint x="538" y="685" as="sourcePoint" />
          </mxGeometry>
        </mxCell>
        <mxCell id="_qxqbZ9-g9Q8WZ-1fdAb-2" value="&lt;font style=&quot;font-size: 10px;&quot; color=&quot;#2366cc&quot;&gt;vCU&lt;/font&gt;" style="sketch=0;points=[[0,0,0],[0.25,0,0],[0.5,0,0],[0.75,0,0],[1,0,0],[0,1,0],[0.25,1,0],[0.5,1,0],[0.75,1,0],[1,1,0],[0,0.25,0],[0,0.5,0],[0,0.75,0],[1,0.25,0],[1,0.5,0],[1,0.75,0]];points=[[0,0,0],[0.25,0,0],[0.5,0,0],[0.75,0,0],[1,0,0],[0,1,0],[0.25,1,0],[0.5,1,0],[0.75,1,0],[1,1,0],[0,0.25,0],[0,0.5,0],[0,0.75,0],[1,0.25,0],[1,0.5,0],[1,0.75,0]];outlineConnect=0;fontColor=#232F3E;gradientColor=#F34482;gradientDirection=north;fillColor=#BC1356;strokeColor=#ffffff;dashed=0;verticalLabelPosition=bottom;verticalAlign=top;align=center;html=1;fontSize=12;fontStyle=0;aspect=fixed;shape=mxgraph.aws4.resourceIcon;resIcon=mxgraph.aws4.control_tower;spacingTop=-3;" parent="qWieJK0spwF9RIx0VZWi-1" vertex="1">
          <mxGeometry x="518" y="725" width="40" height="40" as="geometry" />
        </mxCell>
        <mxCell id="_qxqbZ9-g9Q8WZ-1fdAb-3" value="&lt;font style=&quot;font-size: 10px;&quot; color=&quot;#0066cc&quot;&gt;vDU&lt;/font&gt;" style="verticalLabelPosition=bottom;sketch=0;html=1;fillColor=#A153A0;strokeColor=#ffffff;verticalAlign=top;align=center;points=[[0,0.5,0],[0.125,0.25,0],[0.25,0,0],[0.5,0,0],[0.75,0,0],[0.875,0.25,0],[1,0.5,0],[0.875,0.75,0],[0.75,1,0],[0.5,1,0],[0.125,0.75,0]];pointerEvents=1;shape=mxgraph.cisco_safe.compositeIcon;bgIcon=mxgraph.cisco_safe.design.blank_device;resIcon=mxgraph.cisco_safe.design.distribution_switch;spacingTop=-3;" parent="qWieJK0spwF9RIx0VZWi-1" vertex="1">
          <mxGeometry x="518" y="645" width="40" height="40" as="geometry" />
        </mxCell>
      </root>
    </mxGraphModel>
  </diagram>
  <diagram name="Chp4-Fig12" id="k6AF3B0ULwKtgsw-MLV2">
    <mxGraphModel dx="1109" dy="817" grid="1" gridSize="10" guides="1" tooltips="1" connect="1" arrows="1" fold="1" page="1" pageScale="1" pageWidth="850" pageHeight="1100" math="0" shadow="0">
      <root>
        <mxCell id="0vdSGih4-GmX366hFOW3-0" />
        <mxCell id="0vdSGih4-GmX366hFOW3-1" parent="0vdSGih4-GmX366hFOW3-0" />
        <mxCell id="0vdSGih4-GmX366hFOW3-2" value="" style="rounded=0;whiteSpace=wrap;html=1;fontColor=#0066cc;" parent="0vdSGih4-GmX366hFOW3-1" vertex="1">
          <mxGeometry x="40" y="40" width="590" height="800" as="geometry" />
        </mxCell>
        <mxCell id="0vdSGih4-GmX366hFOW3-3" value="" style="rounded=0;whiteSpace=wrap;html=1;" parent="0vdSGih4-GmX366hFOW3-1" vertex="1">
          <mxGeometry x="1130" y="40" width="430" height="800" as="geometry" />
        </mxCell>
        <mxCell id="0vdSGih4-GmX366hFOW3-4" value="" style="rounded=0;whiteSpace=wrap;html=1;fontColor=#0066cc;" parent="0vdSGih4-GmX366hFOW3-1" vertex="1">
          <mxGeometry x="630" y="40" width="500" height="800" as="geometry" />
        </mxCell>
        <mxCell id="0vdSGih4-GmX366hFOW3-5" value="" style="rounded=0;whiteSpace=wrap;html=1;fillColor=#EBFFFF;strokeColor=none;" parent="0vdSGih4-GmX366hFOW3-1" vertex="1">
          <mxGeometry x="41" y="320" width="1518" height="280" as="geometry" />
        </mxCell>
        <mxCell id="0vdSGih4-GmX366hFOW3-6" value="" style="rounded=0;whiteSpace=wrap;html=1;fillColor=#f5f5f5;strokeColor=#666666;fontColor=#333333;" parent="0vdSGih4-GmX366hFOW3-1" vertex="1">
          <mxGeometry x="170" y="90" width="200" height="750" as="geometry" />
        </mxCell>
        <mxCell id="0vdSGih4-GmX366hFOW3-7" value="" style="rounded=1;whiteSpace=wrap;html=1;" parent="0vdSGih4-GmX366hFOW3-1" vertex="1">
          <mxGeometry x="60" y="610" width="200" height="220" as="geometry" />
        </mxCell>
        <mxCell id="0vdSGih4-GmX366hFOW3-8" value="" style="group" parent="0vdSGih4-GmX366hFOW3-1" vertex="1" connectable="0">
          <mxGeometry x="40" y="40" width="590" height="50" as="geometry" />
        </mxCell>
        <mxCell id="0vdSGih4-GmX366hFOW3-9" value="" style="rounded=0;whiteSpace=wrap;html=1;fillColor=#5762b3;" parent="0vdSGih4-GmX366hFOW3-8" vertex="1">
          <mxGeometry width="590" height="50" as="geometry" />
        </mxCell>
        <mxCell id="0vdSGih4-GmX366hFOW3-10" value="&lt;font color=&quot;#ffffff&quot; style=&quot;font-size: 24px;&quot;&gt;User Edge, Field Deployed Compute&lt;/font&gt;" style="text;strokeColor=none;align=center;fillColor=none;html=1;verticalAlign=middle;whiteSpace=wrap;rounded=0;" parent="0vdSGih4-GmX366hFOW3-8" vertex="1">
          <mxGeometry x="21.071428571428573" y="10" width="516.25" height="30" as="geometry" />
        </mxCell>
        <mxCell id="0vdSGih4-GmX366hFOW3-11" value="" style="group;fillColor=none;" parent="0vdSGih4-GmX366hFOW3-1" vertex="1" connectable="0">
          <mxGeometry x="630" y="40" width="500" height="50" as="geometry" />
        </mxCell>
        <mxCell id="0vdSGih4-GmX366hFOW3-12" value="" style="rounded=0;whiteSpace=wrap;html=1;fillColor=#d5e8d4;strokeColor=#82b366;" parent="0vdSGih4-GmX366hFOW3-11" vertex="1">
          <mxGeometry width="500" height="50" as="geometry" />
        </mxCell>
        <mxCell id="0vdSGih4-GmX366hFOW3-13" value="&lt;font style=&quot;font-size: 24px;&quot;&gt;Service Provider Edge / Regional Compute&lt;/font&gt;" style="text;strokeColor=none;align=center;fillColor=#d5e8d4;html=1;verticalAlign=middle;whiteSpace=wrap;rounded=0;" parent="0vdSGih4-GmX366hFOW3-11" vertex="1">
          <mxGeometry x="17.86" y="10" width="462.14" height="30" as="geometry" />
        </mxCell>
        <mxCell id="0vdSGih4-GmX366hFOW3-14" value="" style="group" parent="0vdSGih4-GmX366hFOW3-1" vertex="1" connectable="0">
          <mxGeometry x="1130" y="40" width="430" height="50" as="geometry" />
        </mxCell>
        <mxCell id="0vdSGih4-GmX366hFOW3-15" value="" style="rounded=0;whiteSpace=wrap;html=1;fillColor=#E7DBF0;" parent="0vdSGih4-GmX366hFOW3-14" vertex="1">
          <mxGeometry width="430" height="50" as="geometry" />
        </mxCell>
        <mxCell id="0vdSGih4-GmX366hFOW3-16" value="&lt;font style=&quot;font-size: 24px;&quot;&gt;Global and Cloud Compute&lt;/font&gt;" style="text;strokeColor=none;align=center;fillColor=none;html=1;verticalAlign=middle;whiteSpace=wrap;rounded=0;" parent="0vdSGih4-GmX366hFOW3-14" vertex="1">
          <mxGeometry x="53.75" y="10" width="322.5" height="30" as="geometry" />
        </mxCell>
        <mxCell id="0vdSGih4-GmX366hFOW3-17" value="&lt;font style=&quot;font-size: 24px;&quot;&gt;Infrastructure&lt;/font&gt;" style="text;strokeColor=none;align=center;fillColor=none;html=1;verticalAlign=middle;whiteSpace=wrap;rounded=0;rotation=-90;" parent="0vdSGih4-GmX366hFOW3-1" vertex="1">
          <mxGeometry x="-60" y="700" width="160" height="30" as="geometry" />
        </mxCell>
        <mxCell id="0vdSGih4-GmX366hFOW3-18" value="&lt;font style=&quot;font-size: 24px;&quot;&gt;Platform&lt;/font&gt;" style="text;strokeColor=none;align=center;fillColor=none;html=1;verticalAlign=middle;whiteSpace=wrap;rounded=0;rotation=-90;" parent="0vdSGih4-GmX366hFOW3-1" vertex="1">
          <mxGeometry x="-45" y="435" width="130" height="30" as="geometry" />
        </mxCell>
        <mxCell id="0vdSGih4-GmX366hFOW3-19" value="&lt;font style=&quot;font-size: 24px;&quot;&gt;Application&lt;/font&gt;" style="text;strokeColor=none;align=center;fillColor=none;html=1;verticalAlign=middle;whiteSpace=wrap;rounded=0;rotation=-90;" parent="0vdSGih4-GmX366hFOW3-1" vertex="1">
          <mxGeometry x="-60" y="190" width="160" height="30" as="geometry" />
        </mxCell>
        <mxCell id="0vdSGih4-GmX366hFOW3-20" value="&lt;span style=&quot;font-size: 10px&quot;&gt;SENSORS&lt;br&gt;&lt;/span&gt;" style="aspect=fixed;perimeter=ellipsePerimeter;html=1;align=center;shadow=0;dashed=0;fontColor=#4266cc;labelBackgroundColor=#ffffff;fontSize=12;spacingTop=-3;image;image=img/lib/ibm/users/sensor.svg;" parent="0vdSGih4-GmX366hFOW3-1" vertex="1">
          <mxGeometry x="88" y="620" width="32" height="31.2" as="geometry" />
        </mxCell>
        <mxCell id="0vdSGih4-GmX366hFOW3-21" value="&lt;font size=&quot;1&quot;&gt;ROBOTS&lt;/font&gt;" style="aspect=fixed;perimeter=ellipsePerimeter;html=1;align=center;shadow=0;dashed=0;fontColor=#0066cc;labelBackgroundColor=#ffffff;fontSize=12;spacingTop=-3;image;image=img/lib/ibm/users/user.svg;strokeColor=#4277BB;strokeWidth=2;" parent="0vdSGih4-GmX366hFOW3-1" vertex="1">
          <mxGeometry x="88" y="690" width="32" height="32" as="geometry" />
        </mxCell>
        <mxCell id="0vdSGih4-GmX366hFOW3-22" value="&lt;font style=&quot;font-size: 12px;&quot;&gt;fixed function devices&lt;br&gt;&lt;/font&gt;" style="text;strokeColor=none;align=center;fillColor=none;html=1;verticalAlign=middle;whiteSpace=wrap;rounded=0;" parent="0vdSGih4-GmX366hFOW3-1" vertex="1">
          <mxGeometry x="40" y="90" width="130" height="30" as="geometry" />
        </mxCell>
        <mxCell id="0vdSGih4-GmX366hFOW3-23" value="programmable devices" style="text;strokeColor=none;align=center;fillColor=none;html=1;verticalAlign=middle;whiteSpace=wrap;rounded=0;" parent="0vdSGih4-GmX366hFOW3-1" vertex="1">
          <mxGeometry x="190" y="90" width="140" height="30" as="geometry" />
        </mxCell>
        <mxCell id="0vdSGih4-GmX366hFOW3-24" value="edge servers &amp;amp; gateways" style="text;strokeColor=none;align=center;fillColor=none;html=1;verticalAlign=middle;whiteSpace=wrap;rounded=0;" parent="0vdSGih4-GmX366hFOW3-1" vertex="1">
          <mxGeometry x="400" y="90" width="150" height="30" as="geometry" />
        </mxCell>
        <mxCell id="0vdSGih4-GmX366hFOW3-25" value="&lt;font size=&quot;1&quot;&gt;STORAGE&lt;/font&gt;" style="aspect=fixed;perimeter=ellipsePerimeter;html=1;align=center;shadow=0;dashed=0;fontColor=#4277BB;labelBackgroundColor=#ffffff;fontSize=12;spacingTop=3;image;image=img/lib/ibm/data/data_services.svg;" parent="0vdSGih4-GmX366hFOW3-1" vertex="1">
          <mxGeometry x="443" y="760.39" width="32" height="31.22" as="geometry" />
        </mxCell>
        <mxCell id="0vdSGih4-GmX366hFOW3-26" value="shared &amp;amp; multi-tenant services" style="text;strokeColor=none;align=center;fillColor=none;html=1;verticalAlign=middle;whiteSpace=wrap;rounded=0;" parent="0vdSGih4-GmX366hFOW3-1" vertex="1">
          <mxGeometry x="660" y="90" width="170" height="30" as="geometry" />
        </mxCell>
        <mxCell id="0vdSGih4-GmX366hFOW3-27" value="regional cloud services" style="text;strokeColor=none;align=center;fillColor=none;html=1;verticalAlign=middle;whiteSpace=wrap;rounded=0;" parent="0vdSGih4-GmX366hFOW3-1" vertex="1">
          <mxGeometry x="900" y="90" width="170" height="30" as="geometry" />
        </mxCell>
        <mxCell id="0vdSGih4-GmX366hFOW3-28" value="&lt;font style=&quot;font-size: 10px;&quot;&gt;CAMERA&lt;/font&gt;" style="fontColor=#0066CC;verticalAlign=middle;verticalLabelPosition=bottom;labelPosition=center;align=center;html=1;outlineConnect=0;fillColor=#CCCCCC;strokeColor=#6881B3;gradientColor=none;gradientDirection=north;strokeWidth=2;shape=mxgraph.networks.security_camera;fontSize=11;spacingTop=-3;" parent="0vdSGih4-GmX366hFOW3-1" vertex="1">
          <mxGeometry x="205" y="700" width="30" height="30" as="geometry" />
        </mxCell>
        <mxCell id="0vdSGih4-GmX366hFOW3-29" value="&lt;font style=&quot;font-size: 10px;&quot;&gt;MOBILE &lt;br&gt;DEVICES&lt;/font&gt;" style="sketch=0;outlineConnect=0;fontColor=#0066cc;gradientColor=none;fillColor=#232F3D;strokeColor=none;dashed=0;verticalLabelPosition=bottom;verticalAlign=top;align=center;html=1;fontSize=12;fontStyle=0;aspect=fixed;pointerEvents=1;shape=mxgraph.aws4.mobile_client;spacingTop=-3;" parent="0vdSGih4-GmX366hFOW3-1" vertex="1">
          <mxGeometry x="205" y="620" width="21.02" height="40" as="geometry" />
        </mxCell>
        <mxCell id="0vdSGih4-GmX366hFOW3-30" value="&lt;font style=&quot;font-size: 10px;&quot;&gt;SENSORS&lt;/font&gt;" style="verticalLabelPosition=bottom;sketch=0;html=1;fillColor=#A153A0;strokeColor=#ffffff;verticalAlign=top;align=center;points=[[0,0.5,0],[0.125,0.25,0],[0.25,0,0],[0.5,0,0],[0.75,0,0],[0.875,0.25,0],[1,0.5,0],[0.875,0.75,0],[0.75,1,0],[0.5,1,0],[0.125,0.75,0]];pointerEvents=1;shape=mxgraph.cisco_safe.compositeIcon;bgIcon=mxgraph.cisco_safe.design.blank_device;resIcon=mxgraph.cisco_safe.design.sensor;fontColor=#0066cc;spacingTop=-3;" parent="0vdSGih4-GmX366hFOW3-1" vertex="1">
          <mxGeometry x="85" y="755.11" width="40" height="36.5" as="geometry" />
        </mxCell>
        <mxCell id="0vdSGih4-GmX366hFOW3-31" style="edgeStyle=orthogonalEdgeStyle;rounded=0;orthogonalLoop=1;jettySize=auto;html=1;entryX=1;entryY=0.25;entryDx=0;entryDy=0;startArrow=classic;startFill=1;" parent="0vdSGih4-GmX366hFOW3-1" source="0vdSGih4-GmX366hFOW3-32" target="0vdSGih4-GmX366hFOW3-7" edge="1">
          <mxGeometry relative="1" as="geometry" />
        </mxCell>
        <mxCell id="0vdSGih4-GmX366hFOW3-32" value="&lt;font style=&quot;font-size: 10px;&quot;&gt;RU&lt;/font&gt;" style="fontColor=#0066CC;verticalAlign=top;verticalLabelPosition=bottom;labelPosition=center;align=center;html=1;outlineConnect=0;fillColor=#CCCCCC;strokeColor=#6881B3;gradientColor=none;gradientDirection=north;strokeWidth=2;shape=mxgraph.networks.radio_tower;spacingTop=-3;" parent="0vdSGih4-GmX366hFOW3-1" vertex="1">
          <mxGeometry x="446" y="640" width="25" height="50" as="geometry" />
        </mxCell>
        <mxCell id="0vdSGih4-GmX366hFOW3-33" style="edgeStyle=orthogonalEdgeStyle;rounded=0;orthogonalLoop=1;jettySize=auto;html=1;entryX=0;entryY=0.5;entryDx=0;entryDy=0;jumpStyle=arc;" parent="0vdSGih4-GmX366hFOW3-1" edge="1">
          <mxGeometry relative="1" as="geometry">
            <mxPoint x="403" y="389" as="sourcePoint" />
            <mxPoint x="443.9999999999907" y="775.9999999999998" as="targetPoint" />
            <Array as="points">
              <mxPoint x="402" y="389" />
              <mxPoint x="402" y="776" />
            </Array>
          </mxGeometry>
        </mxCell>
        <mxCell id="0vdSGih4-GmX366hFOW3-34" style="edgeStyle=orthogonalEdgeStyle;rounded=0;orthogonalLoop=1;jettySize=auto;html=1;entryX=0.5;entryY=0;entryDx=0;entryDy=0;entryPerimeter=0;" parent="0vdSGih4-GmX366hFOW3-1" source="0vdSGih4-GmX366hFOW3-35" target="0vdSGih4-GmX366hFOW3-38" edge="1">
          <mxGeometry relative="1" as="geometry" />
        </mxCell>
        <mxCell id="0vdSGih4-GmX366hFOW3-35" value="&lt;font color=&quot;#0066cc&quot; style=&quot;font-size: 10px;&quot;&gt;MEC&lt;/font&gt;" style="verticalLabelPosition=top;html=1;verticalAlign=bottom;strokeWidth=1;align=center;outlineConnect=0;dashed=0;outlineConnect=0;shape=mxgraph.aws3d.application2;fillColor=#86E83A;strokeColor=#B0F373;aspect=fixed;labelPosition=center;" parent="0vdSGih4-GmX366hFOW3-1" vertex="1">
          <mxGeometry x="378" y="349" width="46.79" height="40" as="geometry" />
        </mxCell>
        <mxCell id="0vdSGih4-GmX366hFOW3-36" style="edgeStyle=orthogonalEdgeStyle;rounded=0;orthogonalLoop=1;jettySize=auto;html=1;entryX=0.5;entryY=0.15;entryDx=0;entryDy=0;entryPerimeter=0;startArrow=classic;startFill=1;" parent="0vdSGih4-GmX366hFOW3-1" source="0vdSGih4-GmX366hFOW3-38" target="0vdSGih4-GmX366hFOW3-32" edge="1">
          <mxGeometry relative="1" as="geometry" />
        </mxCell>
        <mxCell id="0vdSGih4-GmX366hFOW3-37" style="edgeStyle=orthogonalEdgeStyle;rounded=0;orthogonalLoop=1;jettySize=auto;html=1;entryX=0;entryY=0.5;entryDx=0;entryDy=0;entryPerimeter=0;startArrow=classic;startFill=1;" parent="0vdSGih4-GmX366hFOW3-1" source="0vdSGih4-GmX366hFOW3-38" target="0vdSGih4-GmX366hFOW3-39" edge="1">
          <mxGeometry relative="1" as="geometry" />
        </mxCell>
        <mxCell id="0vdSGih4-GmX366hFOW3-38" value="&lt;font style=&quot;font-size: 10px;&quot; color=&quot;#0066cc&quot;&gt;GATEWAY&lt;/font&gt;" style="sketch=0;aspect=fixed;pointerEvents=1;shadow=0;dashed=0;html=1;strokeColor=none;labelPosition=center;verticalLabelPosition=bottom;verticalAlign=top;align=center;fillColor=#00188D;shape=mxgraph.mscae.enterprise.gateway" parent="0vdSGih4-GmX366hFOW3-1" vertex="1">
          <mxGeometry x="439" y="460" width="40" height="40" as="geometry" />
        </mxCell>
        <mxCell id="0vdSGih4-GmX366hFOW3-39" value="&lt;font style=&quot;font-size: 10px;&quot; color=&quot;#0066cc&quot;&gt;GATEWAY&lt;/font&gt;" style="sketch=0;aspect=fixed;pointerEvents=1;shadow=0;dashed=0;html=1;strokeColor=none;labelPosition=center;verticalLabelPosition=bottom;verticalAlign=top;align=center;fillColor=#00188D;shape=mxgraph.mscae.enterprise.gateway" parent="0vdSGih4-GmX366hFOW3-1" vertex="1">
          <mxGeometry x="1190" y="460" width="40" height="40" as="geometry" />
        </mxCell>
        <mxCell id="0vdSGih4-GmX366hFOW3-40" value="" style="line;strokeWidth=1;direction=south;html=1;" parent="0vdSGih4-GmX366hFOW3-1" vertex="1">
          <mxGeometry x="625" y="320" width="10" height="280" as="geometry" />
        </mxCell>
        <mxCell id="0vdSGih4-GmX366hFOW3-41" value="" style="line;strokeWidth=1;direction=south;html=1;" parent="0vdSGih4-GmX366hFOW3-1" vertex="1">
          <mxGeometry x="1126" y="320" width="8" height="280" as="geometry" />
        </mxCell>
        <mxCell id="0vdSGih4-GmX366hFOW3-42" value="&lt;font style=&quot;font-size: 10px;&quot; color=&quot;#4266cc&quot;&gt;EDGE SERVICES&lt;/font&gt;" style="image;aspect=fixed;perimeter=ellipsePerimeter;html=1;align=center;shadow=0;dashed=0;fontColor=#4277BB;labelBackgroundColor=none;fontSize=12;spacingTop=-3;image=img/lib/ibm/infrastructure/edge_services.svg;labelBorderColor=none;" parent="0vdSGih4-GmX366hFOW3-1" vertex="1">
          <mxGeometry x="670" y="450" width="50" height="50" as="geometry" />
        </mxCell>
        <mxCell id="0vdSGih4-GmX366hFOW3-44" value="&lt;font style=&quot;font-size: 10px;&quot;&gt;CLOUD SERVICES&lt;/font&gt;" style="image;aspect=fixed;perimeter=ellipsePerimeter;html=1;align=center;shadow=0;dashed=0;fontColor=#4277BB;labelBackgroundColor=none;fontSize=12;spacingTop=-3;image=img/lib/ibm/infrastructure/transformation_connectivity.svg;" parent="0vdSGih4-GmX366hFOW3-1" vertex="1">
          <mxGeometry x="1310" y="532" width="50" height="50" as="geometry" />
        </mxCell>
        <mxCell id="0vdSGih4-GmX366hFOW3-45" style="edgeStyle=orthogonalEdgeStyle;rounded=0;orthogonalLoop=1;jettySize=auto;html=1;entryX=0.5;entryY=1;entryDx=0;entryDy=0;entryPerimeter=0;exitX=0;exitY=0.5;exitDx=0;exitDy=0;startArrow=classic;startFill=1;" parent="0vdSGih4-GmX366hFOW3-1" source="0vdSGih4-GmX366hFOW3-44" edge="1">
          <mxGeometry relative="1" as="geometry">
            <mxPoint x="1320" y="405" as="sourcePoint" />
            <mxPoint x="1210" y="500" as="targetPoint" />
          </mxGeometry>
        </mxCell>
        <mxCell id="0vdSGih4-GmX366hFOW3-46" value="&lt;font style=&quot;font-size: 10px;&quot;&gt;CORE&lt;/font&gt;" style="image;aspect=fixed;perimeter=ellipsePerimeter;html=1;align=center;shadow=0;dashed=0;fontColor=#4277BB;labelBackgroundColor=default;fontSize=12;spacingTop=-3;image=img/lib/ibm/vpc/BareMetalServer.svg;" parent="0vdSGih4-GmX366hFOW3-1" vertex="1">
          <mxGeometry x="582" y="722" width="45" height="45" as="geometry" />
        </mxCell>
        <mxCell id="0vdSGih4-GmX366hFOW3-47" style="edgeStyle=orthogonalEdgeStyle;rounded=0;orthogonalLoop=1;jettySize=auto;html=1;entryX=0;entryY=0.5;entryDx=0;entryDy=0;entryPerimeter=0;" parent="0vdSGih4-GmX366hFOW3-1" target="0vdSGih4-GmX366hFOW3-50" edge="1">
          <mxGeometry relative="1" as="geometry">
            <mxPoint x="528" y="665" as="targetPoint" />
            <mxPoint x="471" y="665" as="sourcePoint" />
          </mxGeometry>
        </mxCell>
        <mxCell id="0vdSGih4-GmX366hFOW3-48" value="" style="edgeStyle=orthogonalEdgeStyle;rounded=0;orthogonalLoop=1;jettySize=auto;html=1;" parent="0vdSGih4-GmX366hFOW3-1" target="0vdSGih4-GmX366hFOW3-49" edge="1">
          <mxGeometry relative="1" as="geometry">
            <mxPoint x="538" y="685" as="sourcePoint" />
          </mxGeometry>
        </mxCell>
        <mxCell id="GtwTR3b9-bdyZ4mQDcV_-0" style="edgeStyle=orthogonalEdgeStyle;rounded=0;orthogonalLoop=1;jettySize=auto;html=1;entryX=0;entryY=0.5;entryDx=0;entryDy=0;" parent="0vdSGih4-GmX366hFOW3-1" source="0vdSGih4-GmX366hFOW3-49" target="0vdSGih4-GmX366hFOW3-46" edge="1">
          <mxGeometry relative="1" as="geometry" />
        </mxCell>
        <mxCell id="0vdSGih4-GmX366hFOW3-49" value="&lt;font style=&quot;font-size: 10px;&quot; color=&quot;#2366cc&quot;&gt;vCU&lt;/font&gt;" style="sketch=0;points=[[0,0,0],[0.25,0,0],[0.5,0,0],[0.75,0,0],[1,0,0],[0,1,0],[0.25,1,0],[0.5,1,0],[0.75,1,0],[1,1,0],[0,0.25,0],[0,0.5,0],[0,0.75,0],[1,0.25,0],[1,0.5,0],[1,0.75,0]];points=[[0,0,0],[0.25,0,0],[0.5,0,0],[0.75,0,0],[1,0,0],[0,1,0],[0.25,1,0],[0.5,1,0],[0.75,1,0],[1,1,0],[0,0.25,0],[0,0.5,0],[0,0.75,0],[1,0.25,0],[1,0.5,0],[1,0.75,0]];outlineConnect=0;fontColor=#232F3E;gradientColor=#F34482;gradientDirection=north;fillColor=#BC1356;strokeColor=#ffffff;dashed=0;verticalLabelPosition=bottom;verticalAlign=top;align=center;html=1;fontSize=12;fontStyle=0;aspect=fixed;shape=mxgraph.aws4.resourceIcon;resIcon=mxgraph.aws4.control_tower;spacingTop=-3;" parent="0vdSGih4-GmX366hFOW3-1" vertex="1">
          <mxGeometry x="518" y="725" width="40" height="40" as="geometry" />
        </mxCell>
        <mxCell id="0vdSGih4-GmX366hFOW3-50" value="&lt;font style=&quot;font-size: 10px;&quot; color=&quot;#0066cc&quot;&gt;vDU&lt;/font&gt;" style="verticalLabelPosition=bottom;sketch=0;html=1;fillColor=#A153A0;strokeColor=#ffffff;verticalAlign=top;align=center;points=[[0,0.5,0],[0.125,0.25,0],[0.25,0,0],[0.5,0,0],[0.75,0,0],[0.875,0.25,0],[1,0.5,0],[0.875,0.75,0],[0.75,1,0],[0.5,1,0],[0.125,0.75,0]];pointerEvents=1;shape=mxgraph.cisco_safe.compositeIcon;bgIcon=mxgraph.cisco_safe.design.blank_device;resIcon=mxgraph.cisco_safe.design.distribution_switch;spacingTop=-3;" parent="0vdSGih4-GmX366hFOW3-1" vertex="1">
          <mxGeometry x="518" y="645" width="40" height="40" as="geometry" />
        </mxCell>
      </root>
    </mxGraphModel>
  </diagram>
</mxfile>
